<?xml version="1.0" encoding="utf-8"?>
<!-- Generator: Adobe Illustrator 16.0.0, SVG Export Plug-In . SVG Version: 6.00 Build 0)  -->
<!DOCTYPE svg PUBLIC "-//W3C//DTD SVG 1.1//EN" "http://www.w3.org/Graphics/SVG/1.1/DTD/svg11.dtd">
<svg version="1.1" id="Layer_1" xmlns="http://www.w3.org/2000/svg" xmlns:xlink="http://www.w3.org/1999/xlink" x="0px" y="0px"
	 width="274.36px" height="156px" viewBox="0 0 274.36 156" enable-background="new 0 0 274.36 156" xml:space="preserve">
<g>
	<path fill-rule="evenodd" clip-rule="evenodd" fill="#FEFEFD" d="M165.28,38.36c3.632,0,7.265,0.034,10.896-0.025
		c0.845-0.014,1.022,0.164,1.009,1.008c-0.06,3.632-0.025,7.265-0.025,10.897c-1.417-0.109-1.368-1.418-1.81-2.283
		c-0.637-1.245-0.636-2.771-1.664-3.852c-1.385-1.471-3.389-1.563-5.106-2.289c-0.137-0.105-0.25-0.233-0.339-0.38
		c-0.326-1.309-1.428-1.689-2.513-2.089c-0.232-0.122-0.415-0.294-0.544-0.523C165.129,38.651,165.156,38.495,165.28,38.36z"/>
	<path fill-rule="evenodd" clip-rule="evenodd" fill="#DCF4FE" d="M165.279,38.721c0.128,0.115,0.256,0.23,0.385,0.345
		c-0.153,0.18-0.342,0.308-0.564,0.385c-4.2,0.13-8.403,0.399-12.598-0.148c-0.228-0.142-0.287-0.336-0.181-0.581
		c0.72-0.124,1.528,0.291,2.158-0.363c2.88,0,5.761,0,8.641,0C163.78,38.833,164.616,38.263,165.279,38.721z"/>
	<path fill-rule="evenodd" clip-rule="evenodd" fill="#EECA6A" d="M173.925,43.752c1.296,0.925,1.138,2.535,1.757,3.782
		c0.459,0.924,0.55,2.038,1.479,2.706c0,1.32,0,2.64,0,3.96c-0.933,0.445-0.83,1.749-1.796,2.167
		c-0.216-0.231-0.259-0.507-0.218-0.807c1.03-2.257,0.996-4.479-0.039-6.754c-0.49-1.079-0.785-2.255-1.187-3.381
		C173.723,44.87,173.416,44.308,173.925,43.752z"/>
	<path fill-rule="evenodd" clip-rule="evenodd" fill="#DDF4FE" d="M124.24,103.16c-0.257-0.427-0.684-0.347-1.079-0.361
		c-0.108-0.237-0.053-0.427,0.167-0.567c2.647-0.54,5.295-0.54,7.945-0.004c0.219,0.143,0.274,0.333,0.167,0.571
		c-0.605,0.093-1.296-0.239-1.799,0.361C127.84,103.16,126.04,103.16,124.24,103.16z"/>
	<path fill-rule="evenodd" clip-rule="evenodd" fill="#C4EDFE" d="M113.438,96.684c-0.438-0.683-0.357-1.623-1.079-2.164
		c0-1.32,0-2.64,0-3.96c0.409-0.597,0.265-1.333,0.498-1.978c0.094-0.179,0.24-0.274,0.44-0.291
		c0.194,0.061,0.331,0.184,0.414,0.369c0.321,0.829,0.036,1.643-0.092,2.449c-0.292,1.843,0.354,3.621,0.32,5.443
		C113.814,96.754,113.646,96.797,113.438,96.684z"/>
	<path fill-rule="evenodd" clip-rule="evenodd" fill="#F7FCFE" d="M113.08,88.399c-0.005,0.119-0.01,0.237-0.016,0.356
		c-0.305,0.173,0.005,0.944-0.704,0.724c0-0.479,0-0.96,0-1.439c0.241-0.12,0.482-0.239,0.722-0.358
		C113.304,87.922,113.29,88.161,113.08,88.399z"/>
	<path fill-rule="evenodd" clip-rule="evenodd" fill="#F7FCFE" d="M165.279,38.721c-0.721-0.116-1.529,0.292-2.159-0.361
		c0.72,0,1.439,0,2.16,0C165.279,38.48,165.279,38.601,165.279,38.721z"/>
	<path fill-rule="evenodd" clip-rule="evenodd" fill="#E3F6FE" d="M112.36,89.479c0.235-0.241,0.47-0.482,0.704-0.724
		c0.036,0.707-0.126,1.337-0.704,1.804C112.36,90.2,112.36,89.84,112.36,89.479z"/>
	<path fill-rule="evenodd" clip-rule="evenodd" fill="#86DBFE" d="M160.219,89.831c-1.866,2.237-3.843,4.35-6.464,5.735
		c-0.496-0.778,0.093-1.33,0.427-1.914c0.381-0.665,0.773-1.317,0.938-2.076c0.104-0.418,0.285-0.798,0.569-1.124
		c0.576-0.473,0.476-1.11,0.416-1.737c0.301-1.298,1.589-1.872,2.165-2.968c0.007-0.013-0.077-0.083-0.127-0.112
		c-0.051-0.03-0.11-0.042-0.173-0.063c-0.301-0.216-0.554-0.47-0.727-0.794c-0.521-0.677-0.916,0.045-1.343,0.151
		c-1.28,0.317-2.512,1.005-3.881,0.368c-0.342-0.87,0.554-1.27,0.736-1.939c0.156-0.357,0.604-0.698,0.05-1.09
		c-0.607-0.335-1.252-0.505-1.947-0.479c-1.352-0.491-1.18-1.422-0.694-2.433c0.438-0.914,1.302-1.532,1.708-2.466
		c0.447-0.791,0.278-1.358-0.603-1.671c-0.11-0.125-0.162-0.272-0.158-0.439c0.271-0.76,1.172-0.778,1.595-1.361
		c0.281-0.292,0.61-0.518,0.969-0.702c0.29-0.153,0.589-0.287,0.894-0.409c1.859-0.648,2.54-0.518,3.405,1.113
		c0.764,1.439,2.354,2.246,2.803,3.885c-0.096,1.034-0.469,2.027-0.468,3.077c2.388,0.795,2.374,0.93,1.79,3.741
		C161.687,86.112,161.411,88.113,160.219,89.831z"/>
	<path fill-rule="evenodd" clip-rule="evenodd" fill="#E7B329" d="M152.814,95.991c-1.05,1.379-1.844,2.978-3.374,3.947
		c-2.367,1.324-3.448,1.358-4.799,0.151c0.111-1.512-0.068-3.025-0.002-4.54c0.166-2.413,2.23-2.078,3.721-2.577
		c0.645,0.011,1.24-0.158,1.78-0.518c0.749-0.204,1.38-0.966,2.275-0.489c0.483,0.676,0.177,1.373,0.057,2.065
		c-0.047,0.34-0.087,0.695-0.249,0.992c-0.395,0.722,0.241,0.429,0.489,0.524C152.825,95.68,152.861,95.825,152.814,95.991z"/>
	<path fill-rule="evenodd" clip-rule="evenodd" fill="#E8B32A" d="M175.355,55.64c0.003,0.242,0.006,0.484,0.009,0.727
		c-5.247,6.72-9.833,13.876-14.053,21.275c-0.183,0.105-0.339,0.075-0.471-0.089c-0.06-0.447-0.207-0.874-0.312-1.311
		c-0.1-0.791-0.154-1.584-0.053-2.38c0.202-1.461-0.63-2.71-0.84-4.088c-0.051-0.275-0.043-0.547,0.029-0.818
		c0.199-0.422,0.385-0.864,0.986-0.774c1.418,1.719,2.177,3.604,1.729,5.452c3.245-5.274,6.782-10.938,10.914-16.197
		C173.855,56.725,174.242,55.748,175.355,55.64z"/>
	<path fill-rule="evenodd" clip-rule="evenodd" fill="#E0F5FE" d="M160.812,77.619c0.167,0.008,0.334,0.015,0.501,0.022
		c-0.209,0.847-0.417,1.693-0.634,2.574c2.097-0.265,2.302-0.237,2.026,1.877c-0.351,2.698-0.433,5.558-2.486,7.738
		c0.984-2.304,1.648-4.7,1.774-7.203c0.038-0.763,0.612-2.479-1.423-1.33c-0.757,0.428-0.59-0.397-0.68-0.792
		c0.209-0.894,0.619-1.747,0.552-2.698C160.5,77.617,160.626,77.561,160.812,77.619z"/>
	<path fill-rule="evenodd" clip-rule="evenodd" fill="#D6F2FE" d="M144.117,100.23c-2.063,0.5-4.127,1-6.19,1.5
		c-0.464,0.269-0.946,0.181-1.43,0.075c-0.027-1.059,0.892-0.99,1.483-1.09c1.587-0.27,3.104-0.778,4.647-1.194
		c0.462-0.072,0.924-0.204,1.394-0.048C144.233,99.703,144.265,99.956,144.117,100.23z"/>
	<path fill-rule="evenodd" clip-rule="evenodd" fill="#E6F7FE" d="M136.454,101.703c0.491,0.01,0.982,0.019,1.473,0.027
		c-2.142,0.479-4.252,1.15-6.487,1.068c0-0.123-0.001-0.245-0.001-0.368C132.985,101.326,134.635,100.929,136.454,101.703z"/>
	<path fill-rule="evenodd" clip-rule="evenodd" fill="#D1BE5E" d="M144.117,100.23c-0.083-0.204-0.167-0.409-0.25-0.613
		c-0.015-0.154,0.027-0.291,0.128-0.41c0.13-0.085,0.272-0.111,0.424-0.078c0.266,0.204,0.333,0.488,0.321,0.804
		c0.909,1.175,2.099,0.732,3.222,0.522c0.508-0.095,0.986-0.34,1.478-0.518C147.637,101.608,146.201,101.688,144.117,100.23z"/>
	<path fill-rule="evenodd" clip-rule="evenodd" fill="#87DDF7" d="M152.814,95.991c-0.009-0.132-0.018-0.265-0.025-0.396
		c0.468-1.644,1.046-3.212,2.743-4.017c-0.062,1.566-1.539,2.502-1.777,3.988C153.564,95.98,153.17,95.942,152.814,95.991z"/>
	<path fill-rule="evenodd" clip-rule="evenodd" fill="#86DBFE" d="M124.222,71.792c0.056-0.227,0.117-0.453,0.166-0.682
		c0.286-1.331,1.26-2.525,1.375-3.749c0.131-1.382-2.173-1.327-2.616-2.705c-1.582-2.038-2.305-4.302-1.814-6.887
		c0.011-0.349,0.022-0.699,0.033-1.048c0.849-2.977,2.59-5.359,4.898-7.367c2.979-2.829,6.577-4.692,10.186-6.548
		c0.184-0.071,0.37-0.117,0.564-0.141c6.172-2.242,12.468-3.728,19.104-3.416c3.345,0.158,6.704-0.163,10.047,0.21
		c1.053,0.194,1.931,0.599,2.156,1.79c0.386,2.211,0.582,4.425,0.04,6.641c-0.873,0.554-1.97,0.8-2.528,1.801
		c-0.194,0.365-0.513,0.606-0.833,0.848c-0.46,0.334-0.95,0.607-1.503,0.758c-0.638,0.106-1.221,0.385-1.823,0.601
		c-0.246,0.053-0.485,0.035-0.718-0.06c-0.394-0.279-0.826-0.503-1.176-0.845c-0.545-1.501-2.124-0.952-3.116-1.567
		c-1.453-0.216-2.899-0.268-4.34,0.083c-1.033,0.141-2.029,0.614-3.106,0.361c-0.693-0.23-1.407-0.261-2.128-0.212
		c-6.313,1.099-11.996,3.687-17.179,7.391c-1.32,0.942-2.545,2.114-2.686,3.874c-0.066,0.83,0.357-0.292,0.525,0.037
		c0.243,0.109,0.36,0.315,0.453,0.542c0.098,0.887,0.993,0.864,1.489,1.299c0.137,0.361-0.026,0.65-0.215,0.935
		c-1.261,1.272-2.385,2.636-2.919,4.394c-0.685,1.27-1.121,2.623-1.466,4.02c-0.115,0.468,0.009,1.327-0.978,1.055
		C124.071,72.727,123.965,72.246,124.222,71.792z"/>
	<path fill-rule="evenodd" clip-rule="evenodd" fill="#86DBFE" d="M124.222,71.792c0.016,0.519,0.032,1.037,0.049,1.556
		c0.81,1.199,0.307,2.587,0.56,3.866c-0.005,0.518-0.128,1.043,0.097,1.549c0.377,1.344,0.913,2.632,1.348,3.956
		c0.026,0.275-0.028,0.529-0.204,0.75c-1.789,0.751-3.005,2.108-3.927,3.761c-1.056,1.893-0.583,3.465,1.451,4.392
		c2.607,1.188,5.396,1.444,8.224,1.211c0.77-0.063,1.556-0.34,2.307-0.188c1.079,0.219,1.317-0.376,1.455-1.197
		c0.726-0.279,1.402-0.01,2.056,0.232c2.053,0.763,4.287,0.609,6.354,1.281c-0.021,1.241-1.091,0.722-1.563,0.733
		c-0.908,0.022-1.848-0.036-2.309-0.079c0.893-0.049,2.237,0.158,3.594,0.119c0.173,2.111,0.04,4.185-0.75,6.179
		c-2.17,0.597-4.34,1.194-6.51,1.792c-1.712-0.032-3.355,0.406-5.016,0.727c-2.757-0.004-5.515-0.008-8.272-0.013
		c-3.999-0.482-7.451-1.856-9.361-5.743c-1.155-2.712-0.68-5.495-0.359-8.271c0.472-2.034,1.545-3.739,2.93-5.262
		c0.474-0.521,1.002-0.992,1.413-1.57c1.77-1.308,3.508-2.661,5.326-3.897c0.681-0.463,0.686-0.998,0.711-1.673
		C123.88,74.594,123.554,73.144,124.222,71.792z"/>
	<path fill-rule="evenodd" clip-rule="evenodd" fill="#EAF8FE" d="M152.321,38.723c-0.001,0.117-0.002,0.233-0.004,0.35
		c-2.02,0.8-4.2,0.772-6.294,1.2c-3.264,0.667-6.404,1.71-9.548,2.762l0.001-0.001c-0.771,0.468-1.541,0.94-2.509,0.742
		c1.662-1.46,3.798-1.88,5.8-2.526C143.847,39.932,147.993,38.848,152.321,38.723z"/>
	<path fill-rule="evenodd" clip-rule="evenodd" fill="#A5E4FE" d="M133.967,43.775c0.836-0.248,1.673-0.495,2.509-0.742
		c-1.218,1.305-3.038,1.477-4.487,2.385c-1.97,1.237-3.776,2.666-5.592,4.095c-0.198-0.124-0.207-0.259-0.026-0.406
		C128.408,46.624,131.329,45.401,133.967,43.775z"/>
	<path fill-rule="evenodd" clip-rule="evenodd" fill="#B1E8FE" d="M126.371,49.107c0.008,0.136,0.017,0.271,0.026,0.406
		c-2.334,1.944-3.756,4.525-5.031,7.208C121.817,53.383,123.898,51.116,126.371,49.107z"/>
	<path fill-rule="evenodd" clip-rule="evenodd" fill="#E3F6FE" d="M117.789,81.571c-1.521,2.23-3.422,4.22-4.343,6.832
		c-0.122-0.001-0.245-0.003-0.367-0.004c0.001-0.239,0.002-0.479,0.002-0.718C114.503,85.531,115.409,82.983,117.789,81.571z"/>
	<path fill-rule="evenodd" clip-rule="evenodd" fill="#AAE6FE" d="M121.333,57.77c-0.15,2.495,0.673,4.732,1.814,6.887
		C121.184,62.932,120.457,60.171,121.333,57.77z"/>
	<path fill-rule="evenodd" clip-rule="evenodd" fill="#E7B329" d="M175.355,55.64c-4.986,5.821-8.885,12.402-13.199,18.821
		c0.298-2.328-0.764-4.252-1.567-6.245c-0.098-0.159-0.126-0.328-0.077-0.508c2.42-3.646,5.332-6.913,8.017-10.356
		c0.588-0.754,1.143-1.539,1.821-2.222c0.291-0.293,0.681-0.615,0.547-1.064c-0.178-0.6-0.784-0.408-1.228-0.5
		c-2.25-0.464-4.524-0.389-6.8-0.307c-0.769,0.028-1.59,0.176-2.006-0.75c0.13-0.529,0.571-0.599,1.004-0.684
		c0.492,0.003,0.978,0.159,1.476,0.064c1.076-0.16,1.995-0.705,2.963-1.151c0.657-0.303,0.374-0.245-0.055-0.265
		c-0.161-0.07-0.273-0.182-0.35-0.334c0.25-0.816,1.102-1.034,1.594-1.612c0.169-0.081,0.336-0.16,0.503-0.243
		c0.71-1.163,0.205-2.438,0.343-3.654c0.113-0.996-0.19-2.018,0.174-3c2.009,0.183,3.927,0.599,5.41,2.123
		c0.641,1.888,1.241,3.791,1.933,5.66C176.66,51.583,176.878,53.673,175.355,55.64z"/>
	<path fill-rule="evenodd" clip-rule="evenodd" fill="#95D6DF" d="M168.515,41.629c0.025,1.778,0.071,3.556,0.064,5.333
		c-0.002,0.689,0.065,1.463-0.796,1.796c-0.202-0.23-0.171-0.456,0.015-0.678c0.738-1.89,0.255-3.845,0.279-5.771
		c0.004-0.348-0.091-0.691,0.065-1.028c0.086-0.204,0.199-0.22,0.338-0.047C168.492,41.366,168.503,41.498,168.515,41.629z"/>
	<path fill-rule="evenodd" clip-rule="evenodd" fill="#DCF4FE" d="M168.48,41.234c-0.113,0.015-0.226,0.03-0.338,0.046
		c-0.264-0.888-0.854-1.386-1.775-1.487c-0.24-0.441-1.17,0.21-1.112-0.702c0.136-0.008,0.272-0.017,0.408-0.025
		C166.979,39.3,168.299,39.528,168.48,41.234z"/>
	<path fill-rule="evenodd" clip-rule="evenodd" fill="#EFF9FE" d="M113.806,96.675c2.126,3.535,5.641,4.808,9.361,5.743
		c-0.002,0.127-0.003,0.254-0.005,0.381c-4.079-0.707-7.793-1.992-9.723-6.116C113.561,96.681,113.683,96.678,113.806,96.675z"/>
	<path fill-rule="evenodd" clip-rule="evenodd" fill="#A5E4FE" d="M165.255,39.092c0.371,0.234,0.741,0.468,1.112,0.702
		c-3.68-0.624-7.392-0.369-11.087-0.332c-5.81,0.06-11.424,1.309-16.899,3.194c-0.633,0.218-1.232,0.44-1.906,0.378
		c5.01-2.404,10.41-3.249,15.842-3.961C156.63,39.079,160.942,39.085,165.255,39.092z"/>
	<path fill-rule="evenodd" clip-rule="evenodd" fill="#97DEFA" d="M151.959,85.16c2.095,0.229,3.923-0.746,6.188-1.685
		c-0.442,0.718-0.618,1.004-0.795,1.29c-0.007,0.249-0.127,0.444-0.29,0.622c-0.229,0.228-0.493,0.411-0.761,0.592
		c-0.43,0.293-0.866,0.568-1.374,0.709c-1.702,0.592-3.499,0.672-5.252,0.995c-2.185,0.112-4.336,0.018-6.329-1.038
		c-0.26-0.674,0.385-0.702,0.693-0.973c0.212-0.149,0.428-0.293,0.643-0.438c0.37-0.245,0.765-0.375,1.211-0.249
		C147.92,84.908,149.933,85.255,151.959,85.16z"/>
	<path fill-rule="evenodd" clip-rule="evenodd" fill="#79D8F7" d="M151.959,85.16c-0.89,0.522-1.797,0.933-2.813,0.329
		c-0.769-0.457-1.506-0.026-2.228,0.109c-0.593,0.111-1.054,0.281-1.127-0.544c0.079-1.087,0.898-1.445,1.745-1.779
		c1.138-0.3,1.683-1.217,1.701-2.217c0.029-1.688,0.858-2.866,1.947-3.976c0.114-0.136,0.247-0.25,0.397-0.344
		c0.269-0.092,0.52-0.079,0.734,0.13c-0.169,1.206-1.36,1.724-1.838,2.738c-0.462,0.983-0.517,1.699,0.761,1.954
		c0.244,0.422,0.012,0.775-0.16,1.139c-0.211,0.334-0.49,0.613-0.738,0.917c-0.148,0.282-0.555,0.558-0.2,0.884
		c0.251,0.232,0.514-0.054,0.723-0.246c0.16-0.165,0.333-0.315,0.517-0.453c0.389-0.262,0.741-0.592,1.24-0.638
		c0.162,0.017,0.301,0.082,0.418,0.195C153.033,84.172,152.463,84.646,151.959,85.16z"/>
	<path fill-rule="evenodd" clip-rule="evenodd" fill="#81DAF4" d="M160.812,77.619l-0.168-0.004
		c-0.128-0.058-0.182-0.13-0.161-0.218c0.023-0.096,0.052-0.144,0.088-0.144c-0.948-1.396-2.453-2.324-3.126-3.982
		c-0.576-1.416-1.823-1.003-2.936-0.709c-0.234-0.165-0.325-0.405-0.356-0.678c-0.007-0.18,0.017-0.356,0.066-0.529
		c0.072-0.167,0.18-0.307,0.324-0.418c0.322-0.181,0.674-0.227,1.035-0.231c0.625-0.002,1.213,0.183,1.798,0.377
		c0.162,0.061,0.314,0.142,0.46,0.236c1.115,1.553,2.106,3.188,3.085,4.829C160.885,76.639,160.848,77.129,160.812,77.619z"/>
	<path fill-rule="evenodd" clip-rule="evenodd" fill="#ECB220" d="M155.532,91.578c-0.915,1.339-1.83,2.678-2.744,4.017
		c-0.598,0.042-0.675,0.79-1.32,0.95c-0.529-0.954,0.832-1.526,0.492-2.385c0.678-0.887,0.809-1.936,0.885-3
		c0.787-1.02,2.1-0.515,3.057-1.049c0.089,0.089,0.128,0.185,0.119,0.288c-0.01,0.107-0.026,0.161-0.05,0.161
		C155.814,90.896,155.409,91.123,155.532,91.578z"/>
	<path fill-rule="evenodd" clip-rule="evenodd" fill="#77D8EA" d="M151.243,74.713c0.002,0.123,0.004,0.245,0.005,0.368
		c-0.384,0.404-0.839,0.395-1.322,0.229c-1.101-1.191-2.381-2.249-2.942-3.855c0.602-1.494,1.142-1.636,2.189-0.562
		c0.289,0.296,0.493,0.664,0.766,0.975c0.312,0.399,0.51,0.853,0.613,1.346c0.067,0.21,0.142,0.418,0.274,0.599
		C150.996,74.098,151.464,74.248,151.243,74.713z"/>
	<path fill-rule="evenodd" clip-rule="evenodd" fill="#88DCFC" d="M158.026,85.502c0.274-0.199,0.548-0.398,1.008-0.732
		c-0.346,1.927-1.952,2.68-2.753,3.988c-0.044,0.245-0.191,0.404-0.414,0.502c-0.155,0.028-0.309,0.018-0.46-0.023
		c-0.3-0.116-0.579-0.259-0.736-0.563c-0.075-0.239-0.057-0.47,0.059-0.693c0.473-0.511,1.104-0.864,1.467-1.484
		c0.082-0.129,0.178-0.247,0.276-0.362c0.207-0.222,0.449-0.395,0.719-0.531C157.459,85.487,157.727,85.351,158.026,85.502z"/>
	<path fill-rule="evenodd" clip-rule="evenodd" fill="#80DAF0" d="M152.68,83.36c-0.407,0.219-0.814,0.438-1.222,0.655
		c-0.389-0.39,0.847-1.448-0.581-1.409c0.121-0.348,0.242-0.696,0.363-1.045c0.693-0.345,1.22,0.143,1.801,0.36
		C153.523,82.553,153.241,82.991,152.68,83.36z"/>
	<path fill-rule="evenodd" clip-rule="evenodd" fill="#C4E85E" d="M154.443,71.914c0.022,0.216,0.044,0.433,0.065,0.648
		c-0.231,0.142-0.463,0.283-0.695,0.424c-0.058-0.034-0.115-0.069-0.174-0.102c-0.273-0.267-0.604-0.251-0.948-0.184
		c-0.398,0.079-0.797,0.177-1.165-0.092c-0.155-0.231-0.184-0.483-0.129-0.75c0.119-0.351,0.313-0.639,0.657-0.803
		C152.893,71.225,153.79,71.23,154.443,71.914z"/>
	<path fill-rule="evenodd" clip-rule="evenodd" fill="#8EDDE0" d="M149.872,75.071c0.458,0.003,0.917,0.006,1.376,0.01
		c1.586-0.139,1.705,0.6,1.069,1.788c-0.222,0.007-0.442,0.015-0.663,0.021c-0.238-0.209-0.106-0.504-0.187-0.748
		c-0.368-0.469-0.983-0.198-1.41-0.479C149.851,75.511,149.656,75.354,149.872,75.071z"/>
	<path fill-rule="evenodd" clip-rule="evenodd" fill="#C4E85E" d="M150.51,73.966c-0.055-0.13-0.107-0.26-0.161-0.39
		c0.042-0.262,0.206-0.399,0.458-0.446c0.373,0,0.751,0.037,1.11-0.115c0.299-0.085,0.568-0.244,0.86-0.346
		c0.328-0.075,0.642-0.066,0.915,0.163c0.04,0.052,0.081,0.103,0.121,0.154c-0.264,0.197-0.527,0.395-0.791,0.592
		C152.268,74.25,151.442,74.453,150.51,73.966z"/>
	<path fill-rule="evenodd" clip-rule="evenodd" fill="#83DCF5" d="M155.912,89.146c0.123-0.129,0.246-0.259,0.369-0.388
		c0.492,0.703,0.754,1.367-0.311,1.803c-0.038-0.122-0.075-0.242-0.113-0.364C155.61,89.832,155.63,89.482,155.912,89.146z"/>
	<path fill-rule="evenodd" clip-rule="evenodd" fill="#87DDFB" d="M160.57,77.254c0.024,0.121,0.048,0.241,0.072,0.361
		c-0.023,1.023-0.108,2.029-0.753,2.891C159.836,79.363,160.174,78.303,160.57,77.254z"/>
	<path fill-rule="evenodd" clip-rule="evenodd" fill="#7ED9E8" d="M150.51,73.966c0.904,0.307,1.691-0.152,2.513-0.388
		c-0.247,0.921-1.208,0.723-1.779,1.135C150.998,74.464,150.754,74.215,150.51,73.966z"/>
	<path fill-rule="evenodd" clip-rule="evenodd" fill="#7FD9F5" d="M152.68,83.36c0.246-0.448,0.417-0.915,0.361-1.438
		c1.2,0.481,0.71,0.96-0.002,1.438C152.919,83.359,152.8,83.36,152.68,83.36z"/>
	<path fill-rule="evenodd" clip-rule="evenodd" fill="#30C8FE" d="M158.026,85.502c-0.23,0.104-0.461,0.209-0.691,0.313
		c-0.246-0.168-0.355-0.409-0.382-0.696c0.134-0.118,0.267-0.235,0.399-0.353C157.796,84.812,158.067,85.015,158.026,85.502z"/>
	<path fill-rule="evenodd" clip-rule="evenodd" fill="#ECB220" d="M152.32,92c-0.798,0.008-1.287,0.939-2.16,0.722
		c-0.331,0.293-0.6,0.193-0.834-0.13c-0.149-0.496,0.153-0.768,0.498-1.021c0.128-0.091,0.266-0.169,0.405-0.239
		c0.413-0.19,0.829-0.377,1.214-0.625c0.271-0.15,0.545-0.296,0.87-0.168c0.285,0.179,0.394,0.469,0.481,0.771
		C152.829,91.672,152.655,91.892,152.32,92z"/>
	<path fill-rule="evenodd" clip-rule="evenodd" fill="#EFB018" d="M148.719,93.439c-1.365,0.443-3.354-0.148-3.599,2.161
		c-0.204,0.252-0.375,0.571-0.793,0.388c-0.293-0.319-0.408-0.708-0.445-1.128c0-0.164,0.039-0.319,0.113-0.465
		c0.465-1.326,1.85-1.054,2.769-1.595c0.565-0.299,1.126-0.263,1.685,0.021C148.666,92.971,148.844,93.14,148.719,93.439z"/>
	<path fill-rule="evenodd" clip-rule="evenodd" fill="#EDB21F" d="M144.404,95.957c0.239-0.119,0.478-0.237,0.716-0.356
		c0.031,1.255,0.033,2.512,0.108,3.765c0.025,0.43-0.179,0.504-0.487,0.567c-0.28-0.151-0.344-0.414-0.359-0.701
		C143.708,98.136,143.669,97.044,144.404,95.957z"/>
	<path fill-rule="evenodd" clip-rule="evenodd" fill="#E9B429" d="M152.32,92c0.119-0.239,0.239-0.479,0.359-0.719
		c0.119-0.115,0.239-0.111,0.36-0.005c0.442,1.262-0.295,2.081-1.08,2.884C152.078,93.439,152.447,92.762,152.32,92z"/>
	<path fill-rule="evenodd" clip-rule="evenodd" fill="#E9B429" d="M148.719,93.439c-0.12-0.12-0.239-0.24-0.359-0.36
		c-0.255-1.164,0.324-1.075,1.081-0.72c0.154,0.291,0.423,0.354,0.72,0.362C149.887,93.376,149.336,93.474,148.719,93.439z"/>
	<path fill-rule="evenodd" clip-rule="evenodd" fill="#C9EB51" d="M160.921,76.148c-1.503-1.243-2.434-2.886-3.224-4.627
		c-0.143-0.324,0.051-0.465,0.311-0.57c0.786-0.028,1.191,0.563,1.675,1.027c0.534,0.594,0.667,1.432,1.219,2.017
		C160.908,74.713,160.914,75.431,160.921,76.148z"/>
	<path fill-rule="evenodd" clip-rule="evenodd" fill="#C0E469" d="M160.901,73.995c-1.168-0.056-0.937-1.187-1.38-1.799
		c-0.242-0.81-0.147-1.595,0.178-2.361c0.067-0.06,0.136-0.119,0.204-0.178C160.443,71.056,161.196,72.405,160.901,73.995z"/>
	<path fill-rule="evenodd" clip-rule="evenodd" fill="#C0E469" d="M159.871,68.962c0.011,0.232,0.021,0.463,0.032,0.695
		c0,0-0.039,0.039-0.039,0.039c-0.46,0.415-1.058,0.92-1.496,0.211c-0.485-0.784-0.02-1.35,0.875-1.509
		C159.583,68.44,159.786,68.635,159.871,68.962z"/>
	<path fill-rule="evenodd" clip-rule="evenodd" fill="#F2C766" d="M159.871,68.962c-0.127-0.12-0.255-0.24-0.382-0.36
		c-0.075-0.092-0.111-0.19-0.108-0.295c0.004-0.108,0.016-0.162,0.034-0.163c0.289-0.433,0.61-0.811,1.216-0.679
		c0.091,0.096,0.118,0.19,0.083,0.281c-0.036,0.089-0.069,0.134-0.102,0.134c-0.017,0.112-0.024,0.224-0.022,0.336
		C160.35,68.465,160.11,68.713,159.871,68.962z"/>
	<path fill-rule="evenodd" clip-rule="evenodd" fill="#8ADCF3" d="M144.073,94.522c-0.003,0.12-0.006,0.24-0.008,0.361
		c0.106,0.141,0.122,0.293,0.06,0.456c-0.191,1.215-0.484,2.426-0.118,3.658c-0.004,0.083-0.009,0.166-0.014,0.249
		c-0.042,0.123-0.083,0.246-0.125,0.37c-0.302,0.098-0.603,0.196-0.904,0.295c-0.079-2.073,0.253-4.098,0.711-6.107
		c0.149-0.117,0.3-0.125,0.452-0.005C144.262,94.052,144.253,94.294,144.073,94.522z"/>
	<path fill-rule="evenodd" clip-rule="evenodd" fill="#E7B329" d="M144.004,95.192c-0.024-0.112-0.004-0.215,0.061-0.309
		c0.406,0.266,0.321,0.686,0.34,1.073c-0.007,1.092-0.015,2.183-0.021,3.274c-0.13,0.005-0.26,0.01-0.39,0.016l0.005-0.013
		C143.467,97.886,143.784,96.539,144.004,95.192z"/>
	<path fill-rule="evenodd" clip-rule="evenodd" fill="#00C2FE" d="M124.539,77.491c-0.596-1.349-0.228-2.76-0.269-4.144
		c0.717-1.816,0.624-3.938,2.062-5.484c0.408-0.365,0.583-0.89,0.907-1.314c0.463-0.606,0.821-1.47,1.741-1.304
		c0.866,0.157,0.744,1.109,1.018,1.734c0.301,2.411-0.046,4.85,0.333,7.256c0.367,3.495,2.433,6.108,4.86,8.29
		c4.759,4.275,10.357,6.28,16.841,5.138c0.236-0.041,0.477-0.068,0.715-0.049c0.525,0.044,1.19-0.033,1.363,0.599
		c0.159,0.582-0.318,1.028-0.768,1.305c-1.776,1.099-3.586,2.151-5.675,2.554c-1.059,0.203-2.101,0.455-3.113,0.82
		c-0.169,0.071-0.345,0.12-0.526,0.147c-2.994,0.271-5.781-0.729-8.62-1.409c-0.086,0.089-0.206,0.207-0.291,0.175
		c-3.624-1.385-6.77-3.344-8.421-7.079c-0.309-1.411,0.502-2.778,0.162-4.188c-0.36-0.877-1.325-1.189-1.822-1.938
		C124.793,78.265,124.603,77.905,124.539,77.491z"/>
	<path fill-rule="evenodd" clip-rule="evenodd" fill="#81DDFB" d="M127.741,61.039c-0.145,0.375-0.289,0.75-0.625,1.622
		c-0.429-1.461-0.563-2.382,0.129-3.427c1.678-2.53,4.228-3.93,6.76-5.351c4.046-2.27,8.37-3.804,12.914-4.723
		c0.549,0.405,1.216,0.025,1.79,0.269c0.086,0.098,0.127,0.202,0.122,0.314c-0.005,0.116-0.019,0.174-0.04,0.174
		c-0.126,0.127-0.274,0.22-0.44,0.286c-1.692,0.186-3.311,0.66-4.884,1.292c-0.123,0.105-0.255,0.199-0.391,0.286
		c-0.615,0.349-1.311,0.496-1.954,0.774c-0.137,0.068-0.278,0.126-0.419,0.184c-0.491,0.21-1.003,0.366-1.491,0.586
		c-0.14,0.074-0.284,0.137-0.429,0.2c-0.979,0.367-1.953,0.74-2.876,1.233c-0.492,0.224-0.977,0.46-1.364,0.854
		c-0.296,0.276-0.628,0.497-0.995,0.668C131.093,57.234,129.439,59.164,127.741,61.039z"/>
	<path fill-rule="evenodd" clip-rule="evenodd" fill="#0ABEFC" d="M130,74.36c-0.68-2.494-0.224-5.041-0.36-7.561
		c-0.156-1.159,0.291-2.163,0.756-3.138c0.288-0.059-0.028-0.21-0.063-0.161c-0.334,0.48-0.735,0.396-1.123,0.034
		c0.158-0.225,0.315-0.45,0.473-0.674c0.017-0.461,0.281-0.795,0.574-1.116c0.211-0.184,0.459-0.279,0.736-0.306
		c0.666,0.009,1.063,0.311,1.097,1.007c-0.246,1.283-0.899,2.449-1.07,3.754c-0.678,2.01-0.684,4.032-0.206,6.09
		c0.156,0.671,0.438,1.361,0.2,2.084c-0.069,0.188-0.19,0.336-0.36,0.442C130.292,74.874,130.164,74.59,130,74.36z"/>
	<path fill-rule="evenodd" clip-rule="evenodd" fill="#04C0FE" d="M129.211,63.535c0.781,0.236,1.125-0.412,1.962-1.172
		c-0.613,1.775-1.073,3.106-1.533,4.437c-0.592-1.585-1.208-1.595-1.983-0.088c-0.263,0.51-0.716,0.959-1.324,1.152
		C126.645,65.99,127.824,64.694,129.211,63.535z"/>
	<path fill-rule="evenodd" clip-rule="evenodd" fill="#7FDEF7" d="M159.88,50.96c0.522-0.005,1.046-0.012,1.08,0.718
		c-0.392,0.645-1.094,0.91-1.648,1.356c-0.199,0.15-0.41,0.28-0.637,0.385c-1.137,0.234-1.976,1.453-3.318,1.014
		c-0.154-0.087-0.271-0.209-0.344-0.371c-0.037-0.169-0.038-0.34,0-0.51c0.132-0.331,0.393-0.539,0.682-0.72
		c0.275-0.164,0.57-0.291,0.867-0.41c0.679-0.215,1.141-0.776,1.748-1.105C158.813,51.115,159.264,50.667,159.88,50.96z"/>
	<path fill-rule="evenodd" clip-rule="evenodd" fill="#85DCF7" d="M159.88,50.96c-0.48,0.24-0.96,0.479-1.44,0.719
		c-0.115-0.092-0.188-0.21-0.212-0.356c-0.006-0.206,0.041-0.408,0.057-0.613c-0.034-0.142-0.107-0.252-0.232-0.333
		c-2.131-0.595-4.272-0.404-6.417-0.182c-0.991,0.103-2.014,0.456-2.915-0.31c0-0.122,0-0.244,0-0.367
		c0.117-0.137,0.235-0.138,0.355-0.003c1.082-0.123,2.164-0.246,3.246-0.37c1.56-0.258,3.119-0.263,4.678,0.003
		c0.739,0.146,1.485,0.261,2.214,0.448C159.926,49.78,160.399,50.144,159.88,50.96z"/>
	<path fill-rule="evenodd" clip-rule="evenodd" fill="#ECB225" d="M127.741,61.039c1.034-2.754,3.364-4.057,5.833-5.203
		c0.332,0.904-0.506,1.076-0.954,1.436c-1.288,1.034-2.771,1.85-3.61,3.359c-0.472,0.49,0.393,1.188-0.251,1.651
		c-0.524,0.103-0.746-0.203-0.869-0.642C127.84,61.441,127.791,61.24,127.741,61.039z"/>
	<path fill-rule="evenodd" clip-rule="evenodd" fill="#77E0FE" d="M167.798,48.081c-0.005,0.226-0.01,0.452-0.015,0.678
		c-0.07,0.065-0.153,0.088-0.247,0.069c-0.588,0.352-1.035,1.09-1.896,0.694C166.188,48.448,166.803,48.039,167.798,48.081z"/>
	<path fill-rule="evenodd" clip-rule="evenodd" fill="#E7B329" d="M163.565,50.998c0.449-0.239,0.898-0.477,1.348-0.715
		c0.307-0.315,0.659-0.26,1.021-0.128l0.094,0.125c-0.215,1.473-1.706,1.035-2.487,1.662c-0.281,0.049-0.541-0.001-0.773-0.173
		C162.509,50.968,163.302,51.258,163.565,50.998z"/>
	<path fill-rule="evenodd" clip-rule="evenodd" fill="#86DBF8" d="M156.999,49.15c-1.559-0.001-3.118-0.002-4.678-0.003
		C153.881,48.583,155.44,48.577,156.999,49.15z"/>
	<path fill-rule="evenodd" clip-rule="evenodd" fill="#8DDDF5" d="M159.153,52.786c0.519-0.506,1.036-1.015,1.807-1.108
		c0.243-0.012,0.486-0.023,0.729-0.035c0.12-0.098,0.251-0.109,0.391-0.045c0.061,0.144,0.027,0.267-0.087,0.372
		c-0.423-0.051-0.726,0.196-1.035,0.423C160.46,52.997,159.895,53.297,159.153,52.786z"/>
	<path fill-rule="evenodd" clip-rule="evenodd" fill="#95DBEE" d="M127.891,61.641c0.346,0.159,0.561,0.573,1.015,0.523
		c0.477-0.038,0.99-0.697,1.418,0.084c-0.214,0.204-0.427,0.408-0.64,0.613C128.852,62.798,127.836,63.006,127.891,61.641z"/>
	<path fill-rule="evenodd" clip-rule="evenodd" fill="#85DCF7" d="M165.934,50.155c-0.34,0.042-0.68,0.085-1.021,0.127
		c0.242-0.253,0.484-0.507,0.727-0.76c0.632-0.231,1.265-0.462,1.896-0.694C167.364,49.708,166.429,49.665,165.934,50.155z"/>
	<path fill-rule="evenodd" clip-rule="evenodd" fill="#85DCF7" d="M162.013,51.672c-0.108-0.001-0.217-0.01-0.323-0.028
		c0.511-0.548,1.143-0.744,1.876-0.646c-0.3,0.21-0.601,0.42-0.9,0.63C162.462,51.858,162.246,51.905,162.013,51.672z"/>
	<path fill-rule="evenodd" clip-rule="evenodd" fill="#7AE0FE" d="M149.075,49.517c-0.119,0.001-0.237,0.002-0.355,0.003
		c-0.606-0.086-1.296,0.241-1.8-0.359C147.639,49.278,148.444,48.865,149.075,49.517z"/>
	<path fill-rule="evenodd" clip-rule="evenodd" fill="#93DEFC" d="M144.027,93.04c0.016-0.092,0.021-0.184,0.02-0.276
		c0.283-0.317,0.646-0.202,0.99-0.184c0.138,0.121,0.196,0.273,0.174,0.455c-0.491,0.104-0.519,0.918-1.176,0.768l-0.18-0.001
		l-0.18,0.003c-1.582,0.543-3.104-0.219-4.665-0.136C140.643,93.029,142.442,94.005,144.027,93.04z"/>
	<path fill-rule="evenodd" clip-rule="evenodd" fill="#D7DA23" d="M125.967,82.764c-0.674-1.286-1.195-2.623-1.388-4.073
		c0.082-0.026,0.164-0.054,0.246-0.081c0.634,0.473,1.201,1.004,1.526,1.75c0.138,0.457,0.16,0.925,0.13,1.398
		C126.434,82.156,126.349,82.536,125.967,82.764z"/>
	<path fill-rule="evenodd" clip-rule="evenodd" fill="#F9DF0B" d="M125.967,82.764c0.028-0.397,0.055-0.796,0.083-1.193
		c0.484-0.143,0.75,0.098,0.913,0.519c-0.31,0.493,0.569,1.428-0.594,1.604c-0.123-0.1-0.246-0.199-0.369-0.298
		C125.989,83.185,125.978,82.975,125.967,82.764z"/>
	<path fill-rule="evenodd" clip-rule="evenodd" fill="#D7DA23" d="M124.539,77.491c0.26,0.272,0.728,0.353,0.766,0.83
		c-0.13,0.279-0.473,0.153-0.652,0.341l-0.073,0.028C124.178,78.304,124.189,77.903,124.539,77.491z"/>
	<path fill-rule="evenodd" clip-rule="evenodd" fill="#E3B740" d="M159.153,52.786c0.677,0.216,1.155-0.481,1.805-0.393
		c0.513,0.527,1.128,0.491,1.806,0.427c2.559-0.239,5.106-0.006,7.645,0.322c1.225,0.158,1.583,0.767,0.759,1.783
		c-3.509,4.326-7.035,8.637-10.556,12.954c-0.016-0.143-0.032-0.285-0.049-0.427c-0.193-0.895,0.441-1.444,0.885-2.058
		c2.418-3.343,5.16-6.429,7.702-9.673c0.32-0.409,0.776-0.747,0.851-1.416c-1.423-0.475-2.86-0.287-4.274-0.377
		c-2.307-0.146-4.649,0.414-6.926-0.345c-0.137-0.16-0.142-0.323-0.015-0.49C158.908,52.991,159.03,52.888,159.153,52.786z"/>
	<path fill-rule="evenodd" clip-rule="evenodd" fill="#EEB11C" d="M163.478,51.692c0.632-0.864,1.977-0.442,2.55-1.413
		c0.573-0.118,1.146-0.237,2.152-0.446c-1.596,1.393-3.11,2.046-4.7,2.565C163.268,52.164,163.267,51.928,163.478,51.692z"/>
	<path fill-rule="evenodd" clip-rule="evenodd" fill="#EFAF15" d="M169.555,42.694c0,1.773,0,3.546,0,5.777
		C168.765,46.242,168.608,44.469,169.555,42.694z"/>
	<path fill-rule="evenodd" clip-rule="evenodd" fill="#EFB018" d="M163.478,51.692c0,0.235,0.001,0.471,0.002,0.707
		c-0.526-0.038-1.118,0.157-1.486-0.428c0.013-0.099,0.019-0.199,0.02-0.298c0.217-0.015,0.435-0.029,0.652-0.044
		C162.936,51.65,163.206,51.671,163.478,51.692z"/>
	<path fill-rule="evenodd" clip-rule="evenodd" fill="#03BFFE" d="M145.005,92.78c-0.319-0.006-0.639-0.011-0.958-0.017
		c1.988-1.302,4.518-0.964,6.542-2.17c1.146-0.684,2.486-1.091,3.439-2.411c-1.854-0.437-3.444,0.304-5.085,0.251
		c-7.781-0.251-13.75-3.433-17.699-10.303c-0.709-1.234-1.431-2.31-1.245-3.771c0.12,0.119,0.24,0.239,0.36,0.359
		c0.753,0.344,0.786,1.221,1.298,1.742c0.114,0.11,0.217,0.23,0.317,0.354c0.269,0.383,0.542,0.763,0.802,1.153
		c0.427,0.955,1.149,1.695,1.812,2.48c2.009,2.539,4.714,4.042,7.679,5.158c0.389,0.166,0.823,0.271,1.022,0.71
		c2.085,0.798,4.282,0.872,6.472,0.983c1.831-0.262,3.747-0.087,5.438-1.064c0.362-0.224,0.724-0.448,1.086-0.673
		c0.315,0.13,0.544,0.308,0.378,0.698l0.003-0.011c-0.506,0.704-1.151,1.27-1.792,1.842c0.012,0.187,0.022,0.374,0.033,0.561
		c-0.567,0.922-1.442,1.446-2.403,1.86c-0.08-0.001-0.16-0.002-0.24-0.004c-0.22,0.126-0.438,0.251-0.657,0.377
		c-0.484,0.276-1.03,0.419-1.517,0.692l0.031-0.022C148.464,92.163,146.949,93.371,145.005,92.78z"/>
	<path fill-rule="evenodd" clip-rule="evenodd" fill="#C9E950" d="M147.557,83.69c-0.744,0.253-1.26,0.802-1.765,1.364
		c-0.346,0.153-0.69,0.307-1.035,0.46c-0.651,0.121-1.278,0.185-1.519-0.651c1.13-0.776,2.112-1.802,3.533-2.092
		c0.362,0.063,0.673,0.223,0.919,0.501C147.778,83.453,147.733,83.593,147.557,83.69z"/>
	<path fill-rule="evenodd" clip-rule="evenodd" fill="#0FBCFE" d="M155.2,86.236c-1.605,1.413-3.559,1.053-5.438,1.064
		C151.574,86.946,153.388,86.592,155.2,86.236z"/>
	<path fill-rule="evenodd" clip-rule="evenodd" fill="#E2EF3C" d="M143.309,84.809c0.483,0.235,0.965,0.471,1.448,0.706
		c-0.117,0.138-0.234,0.274-0.352,0.412c-0.762,0.3-1.47,0.07-2.171-0.222c-0.44-0.098-0.611-0.392-0.597-0.82
		c0.083-0.429,0.346-0.641,0.778-0.654C142.807,84.278,143.115,84.456,143.309,84.809z"/>
	<path fill-rule="evenodd" clip-rule="evenodd" fill="#B3E4A8" d="M142.214,85.565c0.73,0.12,1.461,0.24,2.191,0.36
		c-0.274,0.411-0.734,0.289-1.116,0.391c-0.356-0.125-0.712-0.251-1.069-0.378c-0.118-0.081-0.157-0.163-0.12-0.247
		C142.138,85.607,142.176,85.565,142.214,85.565z"/>
	<path fill-rule="evenodd" clip-rule="evenodd" fill="#0FBCFE" d="M156.664,86.262c-0.126-0.232-0.252-0.466-0.378-0.698
		c0.223-0.147,0.445-0.296,0.668-0.444c0.281,0.147,0.391,0.39,0.381,0.696C157.111,85.964,156.888,86.112,156.664,86.262z"/>
	<path fill-rule="evenodd" clip-rule="evenodd" fill="#7FD9F5" d="M147.557,83.69c0.016-0.114,0.012-0.228-0.013-0.34
		c-0.029-0.665,0.586-0.956,0.841-1.456c0.406-1.026,0.258-2.177,0.712-3.192c0.25-0.601,0.767-0.977,1.199-1.425
		c0.398-0.304,0.813-0.432,1.269-0.119c-1.037,1.288-1.955,2.568-1.997,4.383C149.543,82.612,148.884,83.587,147.557,83.69z"/>
	<path fill-rule="evenodd" clip-rule="evenodd" fill="#D4EC37" d="M150.877,82.606c0.539-0.016,0.945-1.136,1.44-0.435
		c0.578,0.817-0.734,1.133-0.859,1.845c-0.085,0.096-0.17,0.19-0.254,0.287c-0.3,0.515-0.775,0.54-1.187,0.268
		c-0.598-0.397,0.001-0.802,0.098-1.203C150.369,83.114,150.623,82.86,150.877,82.606z"/>
	<path fill-rule="evenodd" clip-rule="evenodd" fill="#D1EB3D" d="M151.564,77.158c-0.352,0.146-0.703,0.291-1.055,0.437
		c-0.543,0.093-0.587-0.316-0.682-0.677c-0.02-0.293,0.035-0.569,0.174-0.829c0.176-0.247,0.426-0.378,0.712-0.451
		c0.441,0.16,1.222-0.463,1.292,0.558c-0.117,0.232-0.234,0.464-0.352,0.695C151.589,76.969,151.56,77.058,151.564,77.158z"/>
	<path fill-rule="evenodd" clip-rule="evenodd" fill="#80DAF0" d="M150.115,83.368c-0.211,0.979,0.024,1.439,1.089,0.936
		c-0.229,0.823-0.875,1.149-1.473,0.657C149.09,84.431,149.465,83.781,150.115,83.368z"/>
	<path fill-rule="evenodd" clip-rule="evenodd" fill="#C6E958" d="M158.087,71.116c-0.13,0.135-0.26,0.271-0.389,0.405
		c-0.111-0.034-0.22-0.074-0.326-0.119c-0.832-0.916-1.925-0.601-2.947-0.626c-0.461,0.085-0.915,0.086-1.36-0.079
		c-0.272-0.129-0.468-0.314-0.457-0.646c0.365-0.476,0.857-0.783,1.39-1.039c0.99-0.262,2.007-0.342,2.936,0.1
		C157.714,69.485,158.536,69.972,158.087,71.116z"/>
	<path fill-rule="evenodd" clip-rule="evenodd" fill="#64D4F9" d="M152.775,70.026c0.087,0.129,0.173,0.258,0.26,0.388
		c0.435,0.327,1.116,0.151,1.44,0.705c0,0.117,0,0.234,0,0.352c-0.999,0.646-1.687-0.278-2.515-0.498
		c-0.301-0.043-0.519-0.213-0.689-0.454c-0.345-0.722-0.426-1.333,0.625-1.459C152.43,69.163,152.791,69.424,152.775,70.026z"/>
	<path fill-rule="evenodd" clip-rule="evenodd" fill="#BDE76E" d="M154.454,70.415c1.009,0.223,2.405-0.703,2.918,0.987
		c-0.615,0.064-1.113-0.521-1.753-0.314C155.338,70.678,154.437,71.342,154.454,70.415z"/>
	<path fill-rule="evenodd" clip-rule="evenodd" fill="#84DAE3" d="M151.913,70.783c0.902,0.05,1.568,0.98,2.563,0.688
		c-0.011,0.147-0.021,0.295-0.031,0.443c-0.888-0.079-1.772-0.166-2.479-0.801c-0.042-0.05-0.083-0.1-0.125-0.149
		C151.864,70.903,151.889,70.843,151.913,70.783z"/>
	<path fill-rule="evenodd" clip-rule="evenodd" fill="#84DAE3" d="M154.454,70.415c0.388,0.225,0.776,0.449,1.165,0.674
		c-0.381,0.01-0.763,0.021-1.144,0.03c-0.563-0.065-1.073-0.238-1.44-0.705C153.508,70.414,153.981,70.415,154.454,70.415z"/>
	<path fill-rule="evenodd" clip-rule="evenodd" fill="#F3AF13" d="M153.04,91.276c-0.12,0.002-0.24,0.003-0.36,0.005
		c-0.31-0.165-0.363-0.467-0.415-0.771l-0.005,0.001c0.632-0.293,1.263-0.584,1.764-1.094c0.444-0.451,0.954-0.651,1.563-0.31
		c0.107,0.021,0.217,0.033,0.326,0.038c-0.019,0.351-0.036,0.7-0.055,1.051c-0.31,0.052-0.506,0.197-0.656,0.506
		c-0.256,0.523-0.418,1.577-1.183,0.246C153.753,90.487,153.316,90.981,153.04,91.276z"/>
	<path fill-rule="evenodd" clip-rule="evenodd" fill="#C9E955" d="M150.539,75.834c-0.129,0.108-0.257,0.217-0.386,0.325
		c-1.119,0.292-1.615-0.536-2.156-1.233c-0.952-1.229-1.627-2.657-2.711-3.792c-1.489-0.639-3.115,0.078-4.613-0.468
		c-0.19-0.094-0.321-0.239-0.397-0.437c-0.051-0.339,0.024-0.623,0.346-0.799c1.688-0.468,3.404-0.209,5.11-0.186
		c0.551,0.007,1.023,0.271,1.322,0.771c0.314,0.45-0.184,1.034,0.241,1.468c0.746,1.277,2.055,2.149,2.575,3.588
		c0.097,0.127,0.192,0.254,0.288,0.381C150.287,75.578,150.512,75.608,150.539,75.834z"/>
	<path fill-rule="evenodd" clip-rule="evenodd" fill="#CCEA4F" d="M152.68,72.922c-0.157,0.288-0.426,0.351-0.723,0.358
		c-0.36,0.225-0.721-0.082-1.081,0.001c-0.176,0.099-0.353,0.197-0.528,0.296c-0.189-0.444-0.38-0.887-0.57-1.33
		c-0.586-0.944-1.161-1.89-0.138-2.911c1.085-0.507,1.032,0.337,1.159,0.972c0.001,0.079-0.001,0.16,0.001,0.239
		c-0.003,0.078-0.011,0.157-0.013,0.234c-0.074,0.748,0.328,1.278,0.812,1.773c0.363-0.117,0.727-0.233,1.09-0.35
		C152.893,72.446,152.894,72.686,152.68,72.922z"/>
	<path fill-rule="evenodd" clip-rule="evenodd" fill="#C3E860" d="M149.804,69.322c-0.305,0.973-0.509,1.945-0.026,2.925
		c-0.328-0.404-0.634-0.829-0.987-1.209c-0.778-0.837-1.29-0.688-1.494,0.445c-0.441-0.251-0.366-0.682-0.376-1.083
		c0.129-0.196,0.199-0.438,0.422-0.563c0.436-0.196,0.901-0.261,1.368-0.323C149.212,70.242,149.373,69,149.804,69.322z"/>
	<path fill-rule="evenodd" clip-rule="evenodd" fill="#E9B429" d="M155.586,89.107c-1.384-0.185-1.945,1.581-3.326,1.404
		c0.748-0.811,1.645-1.41,2.647-1.858C155.158,88.77,155.483,88.772,155.586,89.107z"/>
	<path fill-rule="evenodd" clip-rule="evenodd" fill="#0FBCFE" d="M154.875,88.093c0.383-0.822,1.025-1.393,1.791-1.842
		C156.401,87.188,155.783,87.781,154.875,88.093z"/>
	<path fill-rule="evenodd" clip-rule="evenodd" fill="#C3E860" d="M151.599,72.555c-0.99-0.22-1.524-0.713-1.078-1.796
		c0.58,0.142,0.938,0.504,1.079,1.082C151.6,72.078,151.6,72.316,151.599,72.555z"/>
	<path fill-rule="evenodd" clip-rule="evenodd" fill="#CCEA4D" d="M151.6,71.841c-0.483-0.237-0.846-0.595-1.079-1.082l-0.001,0.002
		c0.632-0.492,0.989,0.139,1.449,0.354l-0.004-0.001C151.948,71.409,151.895,71.686,151.6,71.841z"/>
	<path fill-rule="evenodd" clip-rule="evenodd" fill="#DCEE22" d="M152.68,72.922c0.003-0.239,0.006-0.478,0.009-0.717
		c0.273,0.308,1.355-0.679,1.005,0.627C153.354,72.861,153.018,72.892,152.68,72.922z"/>
	<path fill-rule="evenodd" clip-rule="evenodd" fill="#BDE76E" d="M150.539,75.834c-0.126-0.127-0.253-0.255-0.38-0.382
		c0.511-0.006,1.022-0.045,1.529-0.009c0.528,0.038,0.747,0.275,0.317,0.752C151.625,75.636,151.056,75.841,150.539,75.834z"/>
	<path fill-rule="evenodd" clip-rule="evenodd" fill="#DBED24" d="M150.876,73.281c0.359-0.565,0.721-0.097,1.081-0.001
		C151.597,73.745,151.237,73.748,150.876,73.281z"/>
	<path fill-rule="evenodd" clip-rule="evenodd" fill="#E6B42D" d="M145.005,92.78c1.773-0.125,3.39-0.905,5.117-1.223
		c-0.228,0.268-0.455,0.534-0.682,0.802c-0.521-0.002-1.047-0.011-1.081,0.72c-0.478,0-0.957-0.35-1.433,0.008
		c-0.631,0.173-1.265,0.456-1.876-0.053C145.069,92.943,145.055,92.858,145.005,92.78z"/>
	<path fill-rule="evenodd" clip-rule="evenodd" fill="#E6B42D" d="M150.091,91.579c0.415-0.429,0.867-0.776,1.517-0.692
		C151.23,91.399,150.729,91.638,150.091,91.579z"/>
	<path fill-rule="evenodd" clip-rule="evenodd" fill="#E7B329" d="M145.051,93.034c0.625,0.018,1.251,0.035,1.876,0.053
		c-0.851,0.678-2.113,0.537-2.854,1.436c-0.013-0.24-0.025-0.479-0.038-0.72C144.444,93.641,144.525,93.044,145.051,93.034z"/>
	<path fill-rule="evenodd" clip-rule="evenodd" fill="#BDE76E" d="M158.087,71.116c-0.662-2.479-2.701-1.64-4.327-1.797
		c-0.95,0.168-1.521-0.523-2.198-0.971c-0.075-0.147-0.093-0.304-0.055-0.465c0.38-0.387,0.78-0.758,1.158-1.152
		c0.218-0.071,0.569,0.124,0.576,0.089c0.071-0.363-0.28-0.547-0.417-0.829c-0.529-0.521-0.837-1.237-1.46-1.652
		c0.016,0.009-0.067-0.066-0.067-0.066s-0.004,0.112,0.011,0.116c0.433,0.197,0.567,0.504,0.391,0.938
		c-0.519,0.273-1.146,0.341-1.549,0.833c-0.814-0.061-0.824-0.917-1.305-1.309c-1.302-1.201-1.485-1.181-3.173,0.356
		c-0.391,0.322-0.816,0.584-1.298,0.751c-0.464,0.137-0.908,0.047-1.326-0.158c-0.809-0.396-1.299-0.077-1.608,0.684
		c-0.214,0.319-0.461,0.479-0.803,0.162c-0.107-0.119-0.204-0.249-0.294-0.38c-0.5-0.772-1.533-0.254-2.102-0.86
		c-0.05-0.166-0.026-0.32,0.07-0.464c0.18-0.162,0.39-0.257,0.632-0.275c-0.091-0.128-0.242-0.056-0.359-0.107
		c-0.591-0.26-1.014-0.611-0.771-1.348c0.117-0.13,0.259-0.222,0.425-0.278c2.224,0.347,4.253,0.044,5.832-1.754
		c0.575-0.663,0.808-1.656,1.819-1.901c1.387,0.019,2.628,0.611,3.923,0.995c2.844,1.494,5.549,3.163,7.335,5.96
		c0.253,0.519,0.571,1.004,0.794,1.542c0.131,0.201,0.273-0.177,0.099-0.013c-0.05,0.046-0.103,0.012-0.138-0.108
		c-0.123-0.429-0.532-0.826-0.15-1.313c1.065-0.292,1.06,0.84,1.623,1.217c0.153,0.206,0.28,0.418,0.138,0.683
		c-0.008,0.12-0.015,0.241-0.023,0.361c-0.586,0.067-1.148,0.33-0.955,0.97c0.258,0.85,0.889-0.067,1.33,0.125
		c0.003,0.85,0.148,1.719-0.343,2.5C159.043,71.836,158.565,71.476,158.087,71.116z"/>
	<path fill-rule="evenodd" clip-rule="evenodd" fill="#D1BE5E" d="M144.004,95.192c-0.001,1.347-0.003,2.694-0.005,4.042
		C142.862,97.886,143.539,96.539,144.004,95.192z"/>
	<path fill-rule="evenodd" clip-rule="evenodd" fill="#DCDB21" d="M124.653,78.662c0.12-0.301,0.381-0.33,0.652-0.342
		c0.472,0.735,1.476,0.898,1.854,1.732c0.162,0.409,0.251,0.813-0.08,1.189c-0.868,0.111-0.494-0.934-1.041-1.122
		C125.346,79.854,125.102,79.16,124.653,78.662z"/>
	<path fill-rule="evenodd" clip-rule="evenodd" fill="#BAD950" d="M126.765,81.208c0.418-0.287,0.307-0.755,0.395-1.155
		c0.716,1.611-0.013,3.175-0.154,4.758c-0.353-0.293-0.716-0.579-0.637-1.118c0.714-0.469,0.305-1.166,0.361-1.77
		C126.567,81.676,126.529,81.436,126.765,81.208z"/>
	<path fill-rule="evenodd" clip-rule="evenodd" fill="#EBB224" d="M137.162,56.893c-0.117,0.062-0.233,0.123-0.35,0.185
		c-0.125,0.113-0.265,0.146-0.424,0.084c-0.564-0.142-1.07-0.004-1.538,0.32c-0.583,0.658-1.542,0.403-2.188,0.909
		c-1.334,0.368-2.632,0.771-2.554,2.554c-0.632,0.557-1.152,0.483-1.548-0.276c0.657-1.73,2.259-2.515,3.582-3.578
		c0.495-0.398,1.17-0.588,1.432-1.254c0.279-0.184,0.558-0.368,0.836-0.551c0.238-0.237,0.581-0.185,0.859-0.309
		c0.483-0.032,0.858-0.279,1.196-0.602c0.748-0.61,1.859-0.52,2.513-1.308l-0.02,0.019c0.624-0.198,1.344-0.141,1.836-0.689l0.002,0
		c0.513-0.264,1.133-0.159,1.628-0.478c0.566,0.022,1.193,0.296,1.601-0.375c0.315-0.274,0.678-0.412,1.096-0.404
		c0.5,0,1.08,0.399,1.44-0.297c0.451-0.336,1.053-0.335,1.502-0.673c0.123-0.098,0.254-0.182,0.395-0.251
		c0.095,0.056,0.182,0.046,0.261-0.03c3.158-0.032,6.312-0.806,9.477-0.058c0.571,0.135,0.575,0.116,0.668,0.816
		c-1.1-0.028-2.109,0.075-2.761,1.186c-0.255,0.434-0.714,0.833-1.356,0.576c-2.125-1.382-4.397-0.688-6.558-0.287
		c-3.579,0.666-7.008,1.893-10.302,3.462c-0.261,0.065-0.539,0.019-0.798,0.11c0.201,0.049,0.416,0.024,0.608,0.132
		c0.223,0.125,0.316,0.311,0.306,0.56C137.824,56.72,137.529,56.866,137.162,56.893z"/>
	<path fill-rule="evenodd" clip-rule="evenodd" fill="#86DBF8" d="M148.459,49.917c-0.054,0.082-0.092,0.169-0.117,0.264
		c-0.699,0.62-1.754,0.377-2.45,1.008c-0.182,0.052-0.364,0.063-0.55,0.035c-0.807-0.249-1.529,0.879-2.365,0.144
		C144.669,50.373,146.467,49.778,148.459,49.917z"/>
	<path fill-rule="evenodd" clip-rule="evenodd" fill="#E9B329" d="M138.979,53.066c-0.458,1.138-1.698,0.972-2.518,1.508
		c-0.165,0.19-0.366,0.204-0.587,0.12c-0.047-0.055-0.095-0.111-0.143-0.167C136.723,53.838,137.799,53.335,138.979,53.066z"/>
	<path fill-rule="evenodd" clip-rule="evenodd" fill="#E7B42A" d="M142.977,51.367c0.834-0.144,1.669-0.287,2.503-0.43
		c0.105,0.333,0.024,0.496-0.354,0.387c-0.363,0.123-0.728,0.247-1.091,0.371c-0.218,0.259-0.498,0.293-0.808,0.224
		c-0.143-0.057-0.25-0.153-0.315-0.294C142.938,51.539,142.959,51.453,142.977,51.367z"/>
	<path fill-rule="evenodd" clip-rule="evenodd" fill="#E7B42A" d="M142.614,52.05c-0.567,0.317-1.178,0.406-1.817,0.345
		c0.65-0.407,1.355-0.666,2.115-0.771l0.08,0.103C143.016,52.009,142.949,52.187,142.614,52.05z"/>
	<path fill-rule="evenodd" clip-rule="evenodd" fill="#E7B42A" d="M140.795,52.396c-0.375,0.861-1.12,0.738-1.836,0.689
		C139.517,52.711,140.126,52.474,140.795,52.396z"/>
	<path fill-rule="evenodd" clip-rule="evenodd" fill="#ECB52B" d="M135.406,55.278c-0.332,0.002-0.664,0.004-0.996,0.006
		c0.331-0.443,0.798-0.65,1.321-0.758l0.087,0.108C135.908,54.995,135.592,55.095,135.406,55.278z"/>
	<path fill-rule="evenodd" clip-rule="evenodd" fill="#94DFFD" d="M130.691,66.005c-0.11-1.333,0.516-2.434,1.111-3.544
		c0.305-0.347,0.131-0.903,0.527-1.21c0.33-0.438,0.856-0.608,1.27-0.934l-0.001,0.001c0.25-0.204,0.508-0.198,0.771-0.024
		c0.168,0.758-0.206,1.412-0.492,2.042c-0.765,1.686-1.259,3.451-1.711,5.234c-0.333,0.674-0.223,1.412-0.3,2.124
		c-0.043,0.568-0.289,1.1-0.29,1.676c-0.07,0.593,0.016,1.244-0.609,1.629c-0.586-1.278-0.94-2.606-0.702-4.018
		C130.431,67.992,130.45,66.983,130.691,66.005z"/>
	<path fill-rule="evenodd" clip-rule="evenodd" fill="#91DDFE" d="M130.691,66.005c0.208,2.045-0.611,4.096,0.038,6.136
		c0.085,0.27,0.229,0.521,0.346,0.779c0.567,0.516,0.528,1.287,0.813,1.922c0.148,0.518,0.337,1.03,0.21,1.584
		c-0.052,0.18-0.151,0.327-0.296,0.445l-0.143-0.01l-0.143,0.003c-0.474-0.642-0.598-1.405-0.758-2.157
		c-0.374-2.622-1.232-5.22-0.413-7.903C130.432,66.529,130.575,66.271,130.691,66.005z"/>
	<path fill-rule="evenodd" clip-rule="evenodd" fill="#FDAC03" d="M128.56,60.668c0.478,0.194,0.952,0.677,1.442,0.02
		c0.638-0.381,0.872-0.046,0.963,0.543c-0.025,0.197-0.097,0.375-0.216,0.535c-0.142,0.16-0.283,0.32-0.425,0.481
		c-0.467-0.136-0.97,0.338-1.419-0.083C128.933,61.633,127.828,61.363,128.56,60.668z"/>
	<path fill-rule="evenodd" clip-rule="evenodd" fill="#36C6E5" d="M130.75,61.766c0.003-0.097,0.015-0.192,0.034-0.287
		c0.316-0.511,0.794-0.664,1.363-0.613c0.311,0.038,0.468,0.197,0.407,0.523c-0.25,0.357-0.5,0.714-0.75,1.071
		C131.784,61.726,131.218,61.82,130.75,61.766z"/>
	<path fill-rule="evenodd" clip-rule="evenodd" fill="#04C0FE" d="M130.76,74.708c0.442,0.652,0.636,1.392,0.757,2.157
		c-0.855-0.462-0.697-1.471-1.157-2.146C130.493,74.716,130.626,74.712,130.76,74.708z"/>
	<path fill-rule="evenodd" clip-rule="evenodd" fill="#F5DB9A" d="M137.162,56.893c0.25-0.182,0.501-0.363,0.752-0.545
		c0.198-0.203,0.438-0.326,0.713-0.381c0.914-0.025,1.785-0.231,2.609-0.638c0.183-0.064,0.37-0.105,0.561-0.132
		c3.128-0.429,6.177-1.289,9.315-1.673c0.884-0.108,1.793-0.094,2.654-0.383c0.527-0.068,1.042-0.086,1.427,0.377
		c-0.031,0.091-0.062,0.182-0.091,0.273c-0.229,0.346-0.483,0.634-0.958,0.419c-5.122,0.394-10.105,1.578-15.102,2.682
		C138.41,57.033,137.79,57.348,137.162,56.893z"/>
	<path fill-rule="evenodd" clip-rule="evenodd" fill="#F5AD10" d="M155.194,53.518c-0.479,0-0.957,0-1.436,0
		c-0.099-0.142-0.134-0.297-0.099-0.468c0.278-0.424,0.541-0.878,1.179-0.653c0.397-0.351,0.97-0.626,1.161-1.066
		c0.686-1.571,1.717-1.275,2.864-0.687l-0.015-0.003c-1.068,0.692-2.016,1.533-2.938,2.404
		C155.673,53.203,155.434,53.36,155.194,53.518z"/>
	<path fill-rule="evenodd" clip-rule="evenodd" fill="#9AE3FA" d="M158.822,53.45c-1.404,0.597-2.755,1.291-4.006,2.171
		c-0.813,0.35-0.945,0.01-0.709-0.702l0.009-0.011c0.334-0.271,0.408-0.935,1.07-0.71c1.413,0.327,2.244-1.241,3.599-1.104
		C158.798,53.212,158.811,53.331,158.822,53.45z"/>
	<path fill-rule="evenodd" clip-rule="evenodd" fill="#EBB224" d="M155.912,53.045c0.542-1.335,1.464-2.207,2.938-2.404
		c-0.144,0.208-0.287,0.415-0.432,0.622c-0.668,0.453-1.095,1.232-1.941,1.444C156.288,52.82,156.101,52.933,155.912,53.045z"/>
	<path fill-rule="evenodd" clip-rule="evenodd" fill="#8DDDF5" d="M156.477,52.707c0.572-0.582,1.117-1.201,1.941-1.444
		c0.008,0.139,0.015,0.277,0.021,0.417C157.75,51.955,157.415,52.908,156.477,52.707z"/>
	<path fill-rule="evenodd" clip-rule="evenodd" fill="#CEECEE" d="M155.187,54.198c-0.356,0.236-0.714,0.474-1.07,0.71
		c0.009-0.233,0.02-0.465,0.029-0.698c0.32-0.14,0.64-0.279,0.959-0.419C155.132,53.927,155.159,54.063,155.187,54.198z"/>
	<path fill-rule="evenodd" clip-rule="evenodd" fill="#E7DD16" d="M126.765,81.208c-0.012,0.238-0.023,0.477-0.035,0.715
		c-0.227-0.117-0.453-0.235-0.68-0.353c-0.004-0.483-0.008-0.967-0.012-1.45C127.008,79.996,126.664,80.751,126.765,81.208z"/>
	<path fill-rule="evenodd" clip-rule="evenodd" fill="#A1E1FE" d="M142.214,85.565c0.002,0.125,0.003,0.249,0.005,0.373
		c-3.256-0.952-6.013-2.646-8.03-5.431c0.312-0.277,0.643-0.15,0.973-0.049c1.518,0.698,2.794,1.786,4.225,2.629
		c0.459,0.294,0.848,0.784,1.502,0.526c0.7,0.116,0.768,0.722,0.957,1.233C141.874,85.137,141.912,85.418,142.214,85.565z"/>
	<path fill-rule="evenodd" clip-rule="evenodd" fill="#A3E1FE" d="M135.054,80.836c-0.288-0.109-0.575-0.219-0.863-0.328
		c-0.795-0.662-1.429-1.436-1.717-2.453c-0.239-0.507-0.45-1.025-0.649-1.549c-0.125-0.473-0.251-0.945-0.376-1.418
		c0.174-0.205,0.394-0.233,0.639-0.168c0.434,0.242,0.626,0.685,0.891,1.067c0.081,0.132,0.145,0.271,0.202,0.415
		c0.06,0.141,0.109,0.286,0.157,0.432c0.148,0.442,0.377,0.844,0.636,1.23C134.359,78.979,135.82,79.476,135.054,80.836z"/>
	<path fill-rule="evenodd" clip-rule="evenodd" fill="#92DDFD" d="M131.824,76.506c0.438,0.423,0.697,0.922,0.649,1.549
		c-0.387-0.302-0.654-0.671-0.671-1.183C131.81,76.75,131.817,76.628,131.824,76.506z"/>
	<path fill-rule="evenodd" clip-rule="evenodd" fill="#BDE76E" d="M145.84,70.76c1.315,1.897,2.027,4.278,4.313,5.399
		c0.001,0.238,0.001,0.478,0.002,0.717c-0.403,0.887-1.213,1.494-1.622,2.377c-0.562,0.704-0.402,1.563-0.503,2.366
		c-0.135,0.655-0.386,1.214-1.131,1.36c-1.354,0.302-2.038,1.917-3.59,1.829c-0.29-0.019-0.562-0.071-0.717-0.359
		c-0.703-0.604-1.358-1.242-1.555-2.203c-0.56-1.381-0.131-2.887-0.546-4.283c-0.146-0.224-0.306-0.436-0.479-0.639
		c-1.016-1.452-2.401-1.984-4.151-1.794c-0.751,0.081-1.547,0.108-2.253-0.316c-0.825-0.777-0.95-1.811-1.041-2.856
		c0.441-1.677,1.944-2.369,3.122-3.367c1.971-0.843,3.426,0.064,4.75,1.41l0,0C142.213,70.919,144.065,70.262,145.84,70.76z"/>
	<path fill-rule="evenodd" clip-rule="evenodd" fill="#CDEA46" d="M146.899,82.979c0.231-0.48,0.782-0.792,0.746-1.413
		c0.122-0.123,0.267-0.211,0.432-0.265c0.269-0.033,0.511,0.023,0.717,0.207c0.104,0.25,0.145,0.492-0.089,0.698
		c-0.388,0.382-0.774,0.763-1.161,1.144C147.264,83.341,147.029,83.251,146.899,82.979z"/>
	<path fill-rule="evenodd" clip-rule="evenodd" fill="#C9EA52" d="M141.52,82.28c-0.06,0.93,1.151,1.23,1.073,2.169
		c-0.32,0-0.593,0.087-0.746,0.398c-0.573-0.157-0.622-0.806-1.04-1.109c-0.435-0.246-0.598-0.667-0.717-1.116
		c-0.114-0.72-0.146-1.438,0.041-2.152c0.066-0.167,0.169-0.311,0.304-0.429c0.177-0.044,0.335-0.005,0.473,0.115
		C141.007,80.894,140.902,81.691,141.52,82.28z"/>
	<path fill-rule="evenodd" clip-rule="evenodd" fill="#CAEA50" d="M148.695,81.57c-0.233-0.005-0.467-0.01-0.699-0.014
		c-0.371-0.91-0.208-1.743,0.361-2.519c0.173-1.075,1.038-1.575,1.798-2.162c0.014,0.291,0.069,0.562,0.354,0.719
		c-0.033,0.656-0.706,0.7-1.031,1.077C148.733,79.507,149.098,80.643,148.695,81.57z"/>
	<path fill-rule="evenodd" clip-rule="evenodd" fill="#C3E85F" d="M148.695,81.57c0.091-1.012-0.236-2.137,0.783-2.898
		c-0.428,1.141-0.052,2.459-0.773,3.535C148.701,81.995,148.698,81.783,148.695,81.57z"/>
	<path fill-rule="evenodd" clip-rule="evenodd" fill="#D2EC42" d="M151.622,68.219c0.865,0.069,1.441,0.701,2.138,1.1
		c-0.013,0.675-0.479,0.719-0.984,0.707c-0.271-0.235-0.542-0.47-0.813-0.706c-0.163-0.162-0.38-0.222-0.588-0.3
		c-0.301-0.111-0.572-0.253-0.666-0.596C150.825,67.524,151.188,67.713,151.622,68.219z"/>
	<path fill-rule="evenodd" clip-rule="evenodd" fill="#8ADCD8" d="M151.602,68.938c0.12,0.128,0.24,0.255,0.36,0.383
		c-0.978,0.086-0.477,0.717-0.434,1.178c-0.316,0.099-0.607,0.113-0.796-0.23C150.734,69.637,150.29,68.714,151.602,68.938z"/>
	<path fill-rule="evenodd" clip-rule="evenodd" fill="#C3E860" d="M150.951,70.367c0.192,0.044,0.385,0.088,0.577,0.132
		c0.129,0.095,0.257,0.189,0.386,0.284c0.033,0.107,0.051,0.218,0.055,0.331c-0.483-0.118-0.967-0.235-1.449-0.354
		c-0.001-0.12-0.001-0.24-0.001-0.359C150.647,70.199,150.792,70.188,150.951,70.367z"/>
	<path fill-rule="evenodd" clip-rule="evenodd" fill="#C5E95B" d="M147.282,70.036c-0.121,0.121-0.241,0.242-0.362,0.364
		c-0.337-0.75-1.002-0.723-1.668-0.72c-1.604,0.007-3.208,0.001-4.812,0c-0.028-0.092-0.056-0.183-0.084-0.274
		c0.09-0.171,0.224-0.297,0.399-0.378c1.749-0.438,3.548,0.014,5.298-0.291c0.293-0.206,0.233-0.534,0.28-0.826
		c0.178-0.703,0.778-0.841,1.352-1.02c0.471-0.057,0.91-0.038,1.134,0.484c0.066,0.633,0.006,1.25-0.235,1.845
		C148.312,69.751,147.655,69.666,147.282,70.036z"/>
	<path fill-rule="evenodd" clip-rule="evenodd" fill="#C6E959" d="M140.444,69.336c-0.002,0.115-0.003,0.23-0.004,0.345
		c0,0.24,0,0.479,0,0.719c-1.541-0.436-2.83-1.97-4.677-1.075c-0.378-0.127-0.544-0.399-0.537-0.789
		c0.067-0.269,0.239-0.449,0.486-0.563c0.317-0.123,0.652-0.162,0.987-0.202c1.081-0.241,1.819,0.63,2.762,0.847
		C139.848,68.776,140.238,68.932,140.444,69.336z"/>
	<path fill-rule="evenodd" clip-rule="evenodd" fill="#C5E95B" d="M145.84,70.76c-1.794-0.207-3.645,0.431-5.4-0.359
		C142.234,70.606,144.085,69.967,145.84,70.76z"/>
	<path fill-rule="evenodd" clip-rule="evenodd" fill="#BFE869" d="M148.361,69.319c0.086-0.606-0.241-1.295,0.357-1.8
		c0.072,0.031,0.145,0.062,0.218,0.09c0.373,0.372,0.792,0.405,1.248,0.166c0.575-0.03,0.413,0.589,0.711,0.805
		c0.286,0.02,0.55,0.083,0.706,0.358c-0.954,0.14-0.79,0.79-0.651,1.429c-0.144,0.011-0.287,0.022-0.432,0.034
		c-0.376-0.269,0.119-1.114-0.715-1.079c-0.331,0.21-0.549,0.764-1.082,0.357C148.519,69.642,148.402,69.518,148.361,69.319z"/>
	<path fill-rule="evenodd" clip-rule="evenodd" fill="#CAEA51" d="M148.361,69.319c0.12,0.12,0.24,0.24,0.36,0.36
		c-0.379,0.526-0.943,0.307-1.44,0.357C147.483,69.559,147.844,69.321,148.361,69.319z"/>
	<path fill-rule="evenodd" clip-rule="evenodd" fill="#C3E962" d="M156.996,66.443c-1.99-2.433-4.434-4.298-7.197-5.762
		c-0.045-0.737,0.492-0.608,0.93-0.628c2.469,0.963,4.313,2.82,6.324,4.437c0.527,0.316,0.924,0.713,0.854,1.395
		C157.742,66.293,157.268,66.203,156.996,66.443z"/>
	<path fill-rule="evenodd" clip-rule="evenodd" fill="#C3E961" d="M144.4,61.399c-1.651,1.925-3.66,2.632-6.121,1.8
		c-0.21-0.245-0.207-0.506-0.064-0.779c0.768-0.64,1.771-0.228,2.602-0.583c0.856-0.365,1.703-0.754,2.598-1.024
		c0.171-0.022,0.341-0.012,0.51,0.027C144.181,60.943,144.346,61.125,144.4,61.399z"/>
	<path fill-rule="evenodd" clip-rule="evenodd" fill="#6ED5FD" d="M140.795,66.083c0.007,0.138,0.013,0.277,0.02,0.415
		c-0.242,0.508-0.267,1.091-0.542,1.59c-0.152,0.227-0.364,0.363-0.629,0.422c-1.153-0.215-2.271-0.5-2.992-1.553
		c-0.024-0.192,0.002-0.376,0.078-0.555c0.196-0.354,0.498-0.576,0.871-0.711C138.684,65.671,139.841,65.054,140.795,66.083z"/>
	<path fill-rule="evenodd" clip-rule="evenodd" fill="#9EE4F4" d="M157.73,66.081c0.034-0.633-0.572-0.929-0.761-1.444
		c-0.093-0.093-0.12-0.182-0.082-0.267c0.037-0.083,0.073-0.124,0.106-0.124c2.345,0.498,2.651,1.005,2.139,3.539
		c-0.807-0.137-0.506-1.349-1.379-1.42c-0.099-0.055-0.135-0.116-0.109-0.181C157.671,66.115,157.7,66.081,157.73,66.081z"/>
	<path fill-rule="evenodd" clip-rule="evenodd" fill="#84DBD7" d="M150.139,66.079c-0.029-1.307,0.566-1.292,1.443-0.683
		c0.256,0.015,0.446,0.146,0.605,0.336c0.227,0.325,0.456,0.651,0.465,1.072c0.12,0.813-0.241,1.15-1.042,1.051
		C150.865,67.474,150.028,67.169,150.139,66.079z"/>
	<path fill-rule="evenodd" clip-rule="evenodd" fill="#C9E954" d="M150.139,66.079c0.49,0.592,0.981,1.185,1.472,1.776
		c0.004,0.122,0.007,0.243,0.011,0.364c-0.356-0.11-0.762-0.317-0.726,0.361c-0.246-0.232-0.492-0.464-0.738-0.696
		c-0.582,0.138-0.764-0.348-1.05-0.673c-0.38-0.563-0.495-1.185-0.418-1.853c0.049-0.284,0.157-0.537,0.39-0.721
		C149.83,64.826,149.645,65.702,150.139,66.079z"/>
	<path fill-rule="evenodd" clip-rule="evenodd" fill="#C6E95A" d="M141.17,66.458c0.01-1.436,0.676-1.828,1.904-1.12
		c0.43,0.248,0.833,0.404,1.318,0.373c0.108,0.771-0.613,0.839-1.002,1.19c-0.724-0.043-1.207,0.594-1.889,0.675
		C141.111,67.285,141.363,66.806,141.17,66.458z"/>
	<path fill-rule="evenodd" clip-rule="evenodd" fill="#C4E965" d="M150.828,60.323c-0.382,0.009-0.789-0.057-1.029,0.358
		c-1.32-0.36-2.64-0.721-3.959-1.081c-0.225-0.25-0.199-0.511-0.028-0.776c1.16-0.247,2.231,0.189,3.328,0.433
		C149.732,59.565,150.709,59.266,150.828,60.323z"/>
	<path fill-rule="evenodd" clip-rule="evenodd" fill="#C3E962" d="M149.079,64.638c-0.004,0.242-0.008,0.485-0.012,0.728
		c-0.058,0.047-0.114,0.095-0.172,0.142c-0.148-0.013-0.287-0.059-0.414-0.138c-0.379-0.336-0.963-0.327-1.284-0.747
		c-0.069-0.137,0.096-0.266,0.032-0.412c-0.106,0.117-0.194,0.245-0.251,0.401c-0.022,0.148-0.048,0.288-0.078,0.43
		c-0.049,0.146-0.115,0.278-0.201,0.404c-0.219,0.234-0.464,0.4-0.806,0.313c-0.288-0.172-0.41-0.435-0.415-0.761
		C147.023,63.073,147.961,62.979,149.079,64.638z"/>
	<path fill-rule="evenodd" clip-rule="evenodd" fill="#CCEA4A" d="M145.479,64.998c0.287,0.151,0.341,0.417,0.35,0.706
		c0.001,0.083,0.002,0.167,0.004,0.25c-0.112,0.524-0.407,0.925-0.832,1.242c-0.646,0.264-1.326,0.672-1.691-0.364
		c-0.076-0.797,0.828-0.646,1.084-1.122C144.755,65.473,145.117,65.235,145.479,64.998z"/>
	<path fill-rule="evenodd" clip-rule="evenodd" fill="#CAEA50" d="M137.935,63.214c0.167,1.809,1.948,0.563,2.792,1.511
		c-0.844,0.46-1.679,0.188-2.449,0.282c-0.08-0.021-0.161-0.042-0.242-0.062c-0.54-0.344-0.846-0.797-0.684-1.469
		C137.48,63.241,137.639,63.075,137.935,63.214z"/>
	<path fill-rule="evenodd" clip-rule="evenodd" fill="#C4E85C" d="M152.652,66.804c-0.402-0.25-0.662-0.608-0.803-1.058
		c0.39-0.318,0.795,0.054,1.19-0.027c0.148,0.177,0.329,0.336,0.439,0.534c0.239,0.427,0.981,0.91,0.445,1.333
		C153.192,68.163,153.188,66.92,152.652,66.804z"/>
	<path fill-rule="evenodd" clip-rule="evenodd" fill="#C8EA56" d="M153.04,65.719c-0.368,1.228-0.8-0.298-1.19,0.027
		c-0.089-0.117-0.178-0.234-0.267-0.351c0.117-0.824-0.807-0.652-1.067-1.114c0.162-0.279,0.43-0.347,0.724-0.361
		C151.979,64.381,152.581,64.979,153.04,65.719z"/>
	<path fill-rule="evenodd" clip-rule="evenodd" fill="#CCEA57" d="M145.834,58.887c0.002,0.238,0.004,0.475,0.006,0.712
		c-0.836,0.315-0.775,1.348-1.439,1.8c-0.12-0.12-0.24-0.24-0.36-0.359C143.97,59.087,144.309,58.68,145.834,58.887z"/>
	<path fill-rule="evenodd" clip-rule="evenodd" fill="#D2EC3F" d="M141.17,66.458c0.439,0.263,0.314,0.713,0.368,1.104
		c-0.352,0.852-0.846,0.736-1.4,0.206c-0.06-0.575,0.115-1.026,0.677-1.27C140.959,66.713,141.068,66.614,141.17,66.458z"/>
	<path fill-rule="evenodd" clip-rule="evenodd" fill="#C6E955" d="M157.73,66.081c0.038,0.092,0.046,0.188,0.023,0.284
		c0.077,0.502,0.514,0.95,0.181,1.62c-0.46-0.462-0.905-0.859-0.938-1.542C156.981,65.798,157.338,65.904,157.73,66.081z"/>
	<path fill-rule="evenodd" clip-rule="evenodd" fill="#8BDCDC" d="M140.795,66.083c-1.092-0.692-2.208-0.167-3.315-0.062
		c0.034-0.501,0.206-0.836,0.8-0.66C139.101,65.663,140.262,64.778,140.795,66.083z"/>
	<path fill-rule="evenodd" clip-rule="evenodd" fill="#D4EC36" d="M137.935,63.214c-0.127,0.113-0.254,0.226-0.381,0.339
		c-0.133,0.129-0.278,0.143-0.435,0.044c-0.228-0.295-0.241-0.619-0.137-0.961c0.076-0.157,0.194-0.273,0.347-0.356
		c0.348-0.1,0.669-0.091,0.916,0.225c0.012,0.232,0.023,0.464,0.035,0.696C138.164,63.199,138.049,63.204,137.935,63.214z"/>
	<path fill-rule="evenodd" clip-rule="evenodd" fill="#BFE769" d="M138.28,65.362c-0.267,0.22-0.533,0.44-0.799,0.66
		c-0.208,0.145-0.416,0.29-0.624,0.435c-0.055-0.075-0.11-0.15-0.165-0.225c0.065-1.004,0.43-1.628,1.585-1.243l0.001,0.018
		C138.279,65.125,138.28,65.244,138.28,65.362z"/>
	<path fill-rule="evenodd" clip-rule="evenodd" fill="#C9EA52" d="M151.239,63.92c-0.156,0.291-0.427,0.353-0.724,0.361
		c-0.208-0.145-0.349-0.363-0.138-0.547C150.702,63.451,151.006,63.604,151.239,63.92z"/>
	<path fill-rule="evenodd" clip-rule="evenodd" fill="#E2F5DD" d="M150.828,60.323c-0.423-0.576-1.022-0.745-1.698-0.743
		c-1.429-0.521-2.882-0.909-4.422-0.83c-0.405,0.042-0.795-0.109-1.197-0.096c-0.459-0.037-0.804,0.382-1.268,0.325
		c-0.39-0.218-0.787-0.411-1.253-0.383c-0.328-0.002-0.654-0.006-0.978-0.065c-0.262-0.06-0.491-0.17-0.64-0.405
		c5.318-1.124,10.109,0.18,14.48,3.235c1.163,0.813,2.358,1.637,3.143,2.885c-0.008,0.13-0.016,0.26-0.024,0.391"/>
	<path fill-rule="evenodd" clip-rule="evenodd" fill="#E9BB3B" d="M132.187,60.99c-0.481,0.126-0.847,0.583-1.404,0.489
		c-0.084-0.438-0.254-0.791-0.781-0.792c-0.708-1.301,0.361-1.667,1.161-2.114c0.404-0.225,0.899-0.286,1.353-0.421
		c0.376-0.231,0.748-0.248,1.114,0.024c-0.413,0.212-0.806,0.488-1.242,0.622c-0.627,0.193-1.508,0.328-1.511,0.993
		c-0.004,0.854,1.056,0.411,1.55,0.756C132.439,60.746,132.36,60.894,132.187,60.99z"/>
	<path fill-rule="evenodd" clip-rule="evenodd" fill="#84DAE7" d="M138.298,58.603c0.237-0.019,0.475-0.037,0.713-0.055
		c0.139,0.138,0.226,0.304,0.262,0.497c-0.09,1.372-0.54,2.446-2.133,2.572c-0.941-0.281-1.096-0.994-1.012-1.839
		c0.093-0.401,0.34-0.676,0.704-0.856c0.161-0.001,0.323-0.002,0.484-0.004c0.178,0.237,0.098,0.553,0.245,0.809
		C137.908,59.414,137.958,58.912,138.298,58.603z"/>
	<path fill-rule="evenodd" clip-rule="evenodd" fill="#D9EC2F" d="M138.298,58.603c0.008,0.179,0.059,0.369,0.017,0.536
		c-0.155,0.61-0.217,1.625-0.997,1.397c-1.008-0.294-0.088-1.057-0.002-1.619C137.644,58.812,137.971,58.708,138.298,58.603z"/>
	<path fill-rule="evenodd" clip-rule="evenodd" fill="#F2B82E" d="M133.629,58.177c-0.372-0.008-0.743-0.016-1.114-0.024
		c0.55-0.703,1.81,0.029,2.164-1.07c0.583-0.291,1.173-0.236,1.767-0.035c0.122,0.01,0.244,0.02,0.366,0.03
		C135.854,57.741,134.738,57.949,133.629,58.177z"/>
	<path fill-rule="evenodd" clip-rule="evenodd" fill="#83DBFB" d="M139.028,58.908c-0.005-0.12-0.011-0.24-0.017-0.36
		c0.12-0.14,0.24-0.281,0.36-0.421c0.249,0.034,0.497,0.069,0.746,0.103c0.525,0.607,0.411,1.37,0.511,2.081
		c-0.014,0.19-0.094,0.348-0.237,0.473C138.856,60.943,139.652,59.41,139.028,58.908z"/>
	<path fill-rule="evenodd" clip-rule="evenodd" fill="#94DEFB" d="M136.832,58.921c-0.121,0.229-0.242,0.458-0.363,0.686
		c-0.63,0.489-1.265,0.965-2.142,0.718c-0.243-0.002-0.486-0.004-0.729-0.006C134.519,59.49,135.646,59.137,136.832,58.921z"/>
	<path fill-rule="evenodd" clip-rule="evenodd" fill="#CEECEE" d="M154.107,54.919c0.026,0.447,0.236,0.707,0.709,0.702
		c-0.356,0.395-0.811,0.944-1.279,0.402C153.177,55.607,153.646,55.16,154.107,54.919z"/>
	<path fill-rule="evenodd" clip-rule="evenodd" fill="#94DEFB" d="M132.187,60.99c0.078-0.146,0.156-0.293,0.236-0.441
		c0.393-0.078,0.785-0.155,1.176-0.232c-0.224,0.48-0.581,0.829-1.046,1.073C132.431,61.257,132.309,61.124,132.187,60.99z"/>
	<path fill-rule="evenodd" clip-rule="evenodd" fill="#E7B42A" d="M154.839,52.397c-0.357,0.242-0.716,0.483-1.073,0.725
		c-0.908,0.892-2.182,0.675-3.224,0.799c-3.06,0.363-6.021,1.136-9.026,1.728l-0.153,0.026l-0.155-0.016
		c-0.52,0.146-1,0.443-1.567,0.417c-0.688-0.28-1.712,0.318-2.081-0.797c3.379-1.958,7.154-2.872,10.866-3.828
		c1.897-0.489,4.004-0.349,6.021-0.131C155.358,51.418,154.734,52.03,154.839,52.397z"/>
	<path fill-rule="evenodd" clip-rule="evenodd" fill="#E9B329" d="M137.56,55.28c0.547,0.759,1.609-0.037,2.16,0.715
		c-0.286,0.348-0.818,0.005-1.09,0.39c-0.238-0.013-0.477-0.024-0.715-0.037c-0.569-0.736-1.32-0.052-2.212-0.151
		C136.331,55.509,136.958,55.419,137.56,55.28z"/>
	<path fill-rule="evenodd" clip-rule="evenodd" fill="#F1AF10" d="M148.728,50.646c0.751-0.614,1.448-0.305,2.102-0.289
		C150.212,50.575,149.641,51.096,148.728,50.646z"/>
	<path fill-rule="evenodd" clip-rule="evenodd" fill="#E7B42A" d="M145.721,50.89c0.816-0.449,1.688-0.694,2.621-0.71
		c-0.302,0.931-1.094,0.753-1.79,0.792C146.251,51.188,145.974,51.169,145.721,50.89z"/>
	<path fill-rule="evenodd" clip-rule="evenodd" fill="#EEB11B" d="M142.614,52.05c0.126-0.108,0.252-0.216,0.378-0.323
		c0.348-0.011,0.695-0.022,1.042-0.033C143.827,52.871,143.215,52.441,142.614,52.05z"/>
	<path fill-rule="evenodd" clip-rule="evenodd" fill="#EFB017" d="M145.721,50.89c0.277,0.028,0.555,0.055,0.831,0.082
		c-0.213,1.185-0.823,0.749-1.426,0.351c0.118-0.129,0.236-0.257,0.354-0.387C145.55,50.866,145.63,50.85,145.721,50.89z"/>
	<path fill-rule="evenodd" clip-rule="evenodd" fill="#F1B015" d="M136.446,57.048c-0.589,0.011-1.178,0.023-1.767,0.035
		C135.258,56.556,135.847,56.545,136.446,57.048z"/>
	<path fill-rule="evenodd" clip-rule="evenodd" fill="#F2AF0C" d="M135.406,55.278c0.137-0.214,0.275-0.43,0.413-0.644
		c0.214-0.02,0.429-0.041,0.643-0.061C136.45,55.318,135.913,55.276,135.406,55.278z"/>
	<path fill-rule="evenodd" clip-rule="evenodd" fill="#85DBFD" d="M134.327,60.325c0.69-0.313,1.314-0.818,2.142-0.718
		c0.008,0.692-0.105,1.434,0.728,1.791c0.119,0.114,0.165,0.25,0.125,0.412c-0.115,0.29-0.388,0.481-0.491,0.78
		c-0.056,0.146-0.13,0.281-0.222,0.407c-0.146,0.182-0.317,0.336-0.505,0.472c-0.521,0.313-0.909,0.761-1.251,1.253
		c-0.255,0.28-0.435,0.593-0.436,0.988c-0.028,0.491,0.007,0.981-0.017,1.473c-0.107,1.814-1.857,2.585-2.552,4.028
		c-0.275,0.125-0.534,0.118-0.767-0.094c0.12-0.479,0.24-0.957,0.361-1.435c0.465-0.664-0.092-1.497,0.358-2.163
		C132.231,64.977,133.061,62.574,134.327,60.325z"/>
	<path fill-rule="evenodd" clip-rule="evenodd" fill="#97DEF3" d="M131.081,71.117c0.236-0.008,0.473-0.016,0.709-0.023
		c0.146-0.106,0.288-0.103,0.429,0.01c0.12,0.331-0.008,0.641-0.076,0.956c-0.28,1.006,0.798,2.02-0.013,3.021
		c-0.228,0.002-0.455,0.005-0.682,0.007c-0.128-0.721-0.488-1.402-0.373-2.166C131.077,72.319,131.079,71.719,131.081,71.117z"/>
	<path fill-rule="evenodd" clip-rule="evenodd" fill="#92DDFD" d="M131.8,67.52c-0.115,0.721,0.291,1.529-0.358,2.163
		C131.556,68.96,131.147,68.152,131.8,67.52z"/>
	<path fill-rule="evenodd" clip-rule="evenodd" fill="#ECB52B" d="M141.516,55.649c3.333-1.262,6.87-1.548,10.336-2.167
		c0.639-0.114,1.275-0.24,1.913-0.36c-0.002,0.132-0.004,0.264-0.007,0.396C149.678,54.229,145.597,54.939,141.516,55.649z"/>
	<path fill-rule="evenodd" clip-rule="evenodd" fill="#ECB52B" d="M138.63,56.385c0.251-0.443,0.687-0.372,1.09-0.39
		c0.465-0.247,0.947-0.423,1.488-0.335C140.474,56.346,139.568,56.424,138.63,56.385z"/>
	<path fill-rule="evenodd" clip-rule="evenodd" fill="#87DBFA" d="M135.054,80.836c0.25-1.33-1.424-1.687-1.455-2.875
		c1.224-1.138,2.674-0.889,4.12-0.678c0.285,0.109,0.516,0.292,0.7,0.534c0.932,1.743,0.143,3.779,0.938,5.548
		C137.725,82.859,136.602,81.486,135.054,80.836z"/>
	<path fill-rule="evenodd" clip-rule="evenodd" fill="#7AD8FB" d="M139.357,83.365c-1.626-1.549-0.56-3.635-1.078-5.404
		c0.391-0.166,0.772-0.088,1.154,0.043c0.804,1.317,0.042,2.893,0.701,4.233c0.081,0.15,0.183,0.286,0.302,0.409
		c0.124,0.363,0.247,0.728,0.371,1.092C140.059,84.645,139.759,83.806,139.357,83.365z"/>
	<path fill-rule="evenodd" clip-rule="evenodd" fill="#C4E95A" d="M132.13,75.08c0.194-1.125-0.908-2.111-0.349-3.275
		c0.176,0.163-0.033-0.038,0.165,0.039c0.309,0.121,0.3,1.146,0.936,0.355c0.243,0.957,0.486,1.913,0.729,2.87
		c-0.041,0.061-0.081,0.122-0.118,0.185c-0.176,0.234-0.289,0.508-0.441,0.758c-0.056,0.05-0.113,0.098-0.17,0.146
		C132.369,75.98,132.202,75.563,132.13,75.08z"/>
	<path fill-rule="evenodd" clip-rule="evenodd" fill="#76D8FD" d="M137.919,77.602c-1.456-0.073-2.898,0.024-4.32,0.359
		c-0.239-0.358-0.478-0.717-0.717-1.075c0.565-0.521,1.235-0.492,1.923-0.375c0.864,0.274,1.741,0.338,2.633,0.134
		c0.373-0.031,0.722,0,0.923,0.383C138.379,77.346,138.202,77.515,137.919,77.602z"/>
	<path fill-rule="evenodd" clip-rule="evenodd" fill="#97DEF3" d="M138.272,77.239c-0.155-0.291-0.423-0.348-0.718-0.346
		c-0.838,0.246-1.676,0.262-2.512-0.008c-0.72,0-1.44,0-2.16,0c0.018-0.16,0.035-0.32,0.052-0.48c1.666-0.72,3.398-0.289,5.105-0.3
		c0.196,0.043,0.377,0.123,0.544,0.235c0.233,0.226,0.281,0.493,0.18,0.795C138.63,77.312,138.466,77.346,138.272,77.239z"/>
	<path fill-rule="evenodd" clip-rule="evenodd" fill="#BDE76E" d="M138.583,76.567c-1.883-0.054-3.766-0.107-5.648-0.162
		c-0.013-0.084-0.031-0.167-0.053-0.248l0.061-0.115c0.171-0.131,0.361-0.227,0.568-0.287c1.684-0.032,3.385-0.388,5.036,0.256
		C138.727,76.186,138.738,76.371,138.583,76.567z"/>
	<path fill-rule="evenodd" clip-rule="evenodd" fill="#C7E958" d="M132.882,72.199c-0.709,0.823-0.862,0.097-1.101-0.395
		c0.098-0.233,0.195-0.468,0.293-0.701c0.777-1.271,1.721-2.332,3.294-2.592c0.132,0.271,0.263,0.542,0.395,0.814
		C134.887,70.368,133.554,70.952,132.882,72.199z"/>
	<path fill-rule="evenodd" clip-rule="evenodd" fill="#C4E95A" d="M138.583,76.567c0.019-0.135,0.039-0.27,0.058-0.404
		c-1.373-0.737-2.862-0.185-4.284-0.386c-0.399-0.071-0.816-0.124-0.76-0.693c0,0,0.014-0.015,0.014-0.015
		c0.838,0.004,1.692,0.109,2.513-0.009c1.982-0.287,3.331,0.557,4.318,2.178c-0.049,0.438-0.167,0.816-0.717,0.812
		c-0.118-0.108-0.222-0.231-0.312-0.365c-0.253-0.391-0.371-0.88-0.821-1.127L138.583,76.567z"/>
	<path fill-rule="evenodd" clip-rule="evenodd" fill="#C3E85D" d="M141.52,82.28c-0.998-0.469-0.649-1.387-0.723-2.163
		c-0.521-0.607-0.514-1.303-0.343-2.027c0.068-0.198,0.186-0.363,0.35-0.494C141.641,79.065,140.742,80.801,141.52,82.28z"/>
	<path fill-rule="evenodd" clip-rule="evenodd" fill="#C9EA52" d="M140.804,77.596c-0.001,0.121-0.003,0.243-0.004,0.365
		c-0.467,0.66,0.086,1.489-0.354,2.153l-0.013,0.014c-0.182,0.114-0.347,0.094-0.497-0.06c-0.205-0.689-0.635-1.358-0.192-2.107
		c0.232-0.241,0.465-0.481,0.698-0.723C140.563,77.357,140.683,77.477,140.804,77.596z"/>
	<path fill-rule="evenodd" clip-rule="evenodd" fill="#C3E85F" d="M148.357,79.038c-0.2,0.828-0.47,1.646-0.361,2.519
		c-0.117,0.004-0.234,0.007-0.351,0.01C147.763,80.69,147.238,79.633,148.357,79.038z"/>
	<path fill-rule="evenodd" clip-rule="evenodd" fill="#B9E676" d="M143.571,84.439c-0.177-0.11-0.394-0.17-0.422-0.278
		c-0.074-0.286,0.157-0.398,0.39-0.368c0.121,0.017,0.297,0.175,0.311,0.286C143.862,84.179,143.686,84.302,143.571,84.439z"/>
	<path fill-rule="evenodd" clip-rule="evenodd" fill="#BCE775" d="M140.075,80.121c0.119,0,0.238,0.002,0.357,0.006
		c0.001,0.84,0.003,1.68,0.004,2.52c-0.088-0.012-0.176-0.021-0.265-0.028C139.663,81.804,139.518,80.976,140.075,80.121z"/>
	<path fill-rule="evenodd" clip-rule="evenodd" fill="#CEEB44" d="M140.445,80.114c0.112-0.719-0.299-1.523,0.354-2.153
		c-0.001,0.719-0.002,1.438-0.002,2.156c0,0-0.176,0.001-0.176,0.001L140.445,80.114z"/>
	<path fill-rule="evenodd" clip-rule="evenodd" fill="#7DD9F0" d="M140.138,67.768c0.476-0.004,1.016,0.419,1.4-0.206
		c0.37-0.778,0.773-1.474,1.77-0.729c0.618,0.68,1.208,0.147,1.807-0.042c0.682-0.193,0.866,0.338,1.12,0.768
		c0.066,0.19,0.096,0.402,0.287,0.526c0.291,0.221,0.512,0.476,0.414,0.88c-2.151,0.425-4.333-0.01-6.49,0.227l-0.002,0.145
		c-0.334-0.186-0.668-0.372-1.002-0.558c-0.111-0.281,0.107-0.395,0.272-0.535C139.855,68.085,139.997,67.926,140.138,67.768z"/>
	<path fill-rule="evenodd" clip-rule="evenodd" fill="#83DADC" d="M140.446,69.191c2.148-0.517,4.328-0.102,6.49-0.227
		C144.798,69.753,142.616,69.3,140.446,69.191z"/>
	<path fill-rule="evenodd" clip-rule="evenodd" fill="#BFE869" d="M148.715,65.364c0.118-0.003,0.235-0.002,0.353,0.001
		c-0.024,0.628,0.026,1.241,0.378,1.79c-0.139,0.326-0.327,0.551-0.724,0.366l-0.003-0.002c-0.275-0.43-0.707-0.349-1.116-0.341
		c-0.133,0.121-0.263,0.118-0.39-0.008c-0.041-0.777,0.961-0.658,1.099-1.283C148.406,65.682,148.521,65.492,148.715,65.364z"/>
	<path fill-rule="evenodd" clip-rule="evenodd" fill="#DBEE25" d="M147.278,67.154c0.107,0.015,0.216,0.022,0.324,0.023
		c-0.193,0.501-1.06,0.201-1.08,0.907c-0.076-0.098-0.152-0.196-0.229-0.294c-0.434-0.34-0.383-0.772-0.013-1.032
		C146.692,66.47,147.06,66.727,147.278,67.154z"/>
	<path fill-rule="evenodd" clip-rule="evenodd" fill="#7CD9F3" d="M135.368,68.512c-1.098,0.864-2.195,1.728-3.293,2.592
		c0,0-0.143,0.001-0.143,0.001l-0.142-0.011c-0.12-0.964,0.594-1.454,1.161-2.021c0.536-0.535,1.138-1.025,1.012-1.908
		c0.079-0.051,0.157-0.102,0.235-0.153c0.093-0.008,0.187-0.016,0.28-0.025c0.582,0.229,1.658-0.029,1.208,1.22
		C135.581,68.309,135.474,68.41,135.368,68.512z"/>
	<path fill-rule="evenodd" clip-rule="evenodd" fill="#8BDCDC" d="M139.714,68.244c-0.091,0.179-0.182,0.357-0.272,0.535
		c-0.971,0.409-1.455-1.002-2.412-0.648c-0.463-0.117-0.941-0.288-0.947-0.837c-0.003-0.371,0.304-0.602,0.729-0.537
		C137.508,67.782,138.712,67.816,139.714,68.244z"/>
	<path fill-rule="evenodd" clip-rule="evenodd" fill="#BFE769" d="M136.812,66.757c-1.232,0.664,0.209,0.907,0.217,1.375
		c-0.447,0.025-0.895,0.05-1.342,0.076c0.101-1.07-1.136-0.403-1.361-1.049c0.734-0.506,1.463-1.031,2.44-0.792l0.091,0.092
		C136.847,66.558,136.832,66.658,136.812,66.757z"/>
	<path fill-rule="evenodd" clip-rule="evenodd" fill="#BBE772" d="M148.722,67.521c0.241-0.122,0.482-0.244,0.724-0.366
		c0.237,0.243,0.475,0.486,0.712,0.729c-0.047,0.383-0.168,0.722-0.643,0.656C148.94,68.461,148.759,68.039,148.722,67.521z"/>
	<path fill-rule="evenodd" clip-rule="evenodd" fill="#84DAE7" d="M136.506,62.518c0.095-0.383,0.35-0.619,0.702-0.766
		c0.22-0.169,0.475-0.256,0.739-0.319c0.768-0.196,1.576-0.067,2.339-0.297c0.789-0.206,1.666-0.126,2.333-0.727
		c0.214-0.156,0.445-0.267,0.714-0.283c0.182,0.021,0.334,0.1,0.462,0.229c0.074,0.265,0.132,0.525-0.226,0.636
		c-0.801,0.371-1.602,0.741-2.403,1.112c-1.29,0.523-2.686-0.12-3.98,0.363l-0.001-0.001c-0.077,0.118-0.182,0.194-0.321,0.222
		C136.725,62.672,136.605,62.616,136.506,62.518z"/>
	<path fill-rule="evenodd" clip-rule="evenodd" fill="#BFE76B" d="M143.569,60.989c0.049-0.219,0.098-0.438,0.146-0.656
		c-0.1-0.742,0.028-1.387,0.748-1.785c1.648-0.077,3.239,0.104,4.666,1.031c-1.122-0.118-2.232-0.295-3.296-0.693
		c-1.594-0.112-1.224,1.412-1.794,2.153C143.883,61.023,143.726,61.006,143.569,60.989z"/>
	<path fill-rule="evenodd" clip-rule="evenodd" fill="#BFE76B" d="M137.187,62.464c1.269-0.752,2.661-0.158,3.979-0.363
		c-0.886,0.767-1.957,0.194-2.921,0.403C137.892,62.49,137.54,62.478,137.187,62.464z"/>
	<path fill-rule="evenodd" clip-rule="evenodd" fill="#78D8E6" d="M148.715,65.364c-0.005,0.228-0.01,0.457-0.014,0.685
		c-0.152,0.15-0.329,0.259-0.531,0.328c-0.689-0.101-1.876,0.58-1.611-1.024c0.014-0.09,0.026-0.18,0.04-0.27
		c0.782-0.481,1.499-0.468,2.115,0.285L148.715,65.364z"/>
	<path fill-rule="evenodd" clip-rule="evenodd" fill="#84DBEC" d="M146.559,65.353c0.238,1.181,1.201,0.559,1.842,0.741
		c-1.252,0.918-2.297,0.773-2.529-0.35l-0.043-0.039C146.071,65.587,146.315,65.47,146.559,65.353z"/>
	<path fill-rule="evenodd" clip-rule="evenodd" fill="#BDE76E" d="M148.714,65.368c-0.649-0.514-1.379-0.423-2.115-0.285
		c-0.013-0.146-0.026-0.292-0.04-0.438c0.228-0.208,0.464-0.226,0.709-0.03C147.827,64.717,148.616,64.379,148.714,65.368z"/>
	<path fill-rule="evenodd" clip-rule="evenodd" fill="#CDEB4C" d="M147.268,64.615c-0.236,0.01-0.473,0.02-0.709,0.03
		c0.292-0.659,0.81-0.796,1.587-0.659C147.788,64.242,147.527,64.428,147.268,64.615z"/>
	<path fill-rule="evenodd" clip-rule="evenodd" fill="#AFE493" d="M145.871,65.744c0.674,1.338,1.617,0.731,2.528,0.35
		c0.102-0.011,0.202-0.026,0.302-0.044c0.065,1.063-1.127,0.507-1.423,1.105c-0.68-0.331-1.173-0.374-0.984,0.637
		c-0.393-0.333-0.786-0.667-1.179-1C145.352,66.431,145.405,65.938,145.871,65.744z"/>
	<path fill-rule="evenodd" clip-rule="evenodd" fill="#CCEA48" d="M136.766,66.365c-0.798,0.311-1.47,1.011-2.44,0.792l-0.004-0.003
		c-0.484-1.281-0.045-2.035,1.302-2.249c0.486-0.077,0.922-0.199,1.1-0.729c0.106-0.255,0.251-0.479,0.493-0.626
		c0.113,0.002,0.225,0.003,0.338,0.002c-0.045,0.623,0.511,0.942,0.723,1.436C137.434,65.074,137.008,65.62,136.766,66.365z"/>
	<path fill-rule="evenodd" clip-rule="evenodd" fill="#C1E86A" d="M137.216,63.551c-0.008,0.243-0.017,0.486-0.025,0.729
		c-0.2,0.115-0.371,0.082-0.514-0.101c-0.322-0.601-0.192-1.15,0.193-1.669c0.101-0.046,0.206-0.063,0.315-0.047
		C137.196,62.826,137.206,63.188,137.216,63.551z"/>
	<path fill-rule="evenodd" clip-rule="evenodd" fill="#75D7F9" d="M144.464,58.549c-0.249,0.595-0.499,1.189-0.748,1.785
		c-0.134-0.009-0.269-0.017-0.403-0.025c-0.334-0.285-0.485-0.666-0.571-1.082c-0.025-0.458,0.14-0.812,0.558-1.03
		C143.745,58.127,144.162,58.148,144.464,58.549z"/>
	<path fill-rule="evenodd" clip-rule="evenodd" fill="#84DAE7" d="M143.3,58.196c-0.116,0.346-0.231,0.691-0.347,1.037
		c-0.01,0.646-0.24,1.188-0.75,1.6c-0.459,0.202-0.856,0.169-1.138-0.301c-0.066-0.482,0.2-0.825,0.483-1.162
		c0.234-0.241,0.454-0.51,0.832-0.527C142.631,58.548,142.765,58.087,143.3,58.196z"/>
	<path fill-rule="evenodd" clip-rule="evenodd" fill="#D2EB3A" d="M142.38,58.843c-0.16,0.249-0.147,0.624-0.524,0.712
		c-0.347-0.169-0.763-0.031-1.1-0.249c-0.156-0.194-0.194-0.414-0.145-0.653c0.089-0.243,0.315-0.323,0.517-0.433
		C141.724,58.069,142.196,58.167,142.38,58.843z"/>
	<path fill-rule="evenodd" clip-rule="evenodd" fill="#9ADFCB" d="M141.128,58.22c-0.092,0.121-0.184,0.241-0.276,0.362
		c-0.602,0.47,0.285,1.302-0.424,1.747c-0.619-0.624-0.263-1.392-0.312-2.099C140.454,58.227,140.791,58.223,141.128,58.22z"/>
	<path fill-rule="evenodd" clip-rule="evenodd" fill="#6ED6FE" d="M141.148,60.402c0.293,0.359,0.7,0.268,1.082,0.274
		c0.241-0.207,0.481-0.221,0.721,0.002c-0.667,0.833-1.61,0.715-2.515,0.732c-0.797,0.431-1.719-0.101-2.517,0.324
		c-0.237,0.006-0.475,0.012-0.711,0.017c-0.006-0.118-0.009-0.235-0.011-0.354c1.281-0.337,1.579-1.397,1.831-2.491
		c0.535,0.017,0.697,0.347,0.689,0.819c-0.007,0.529,0.128,0.938,0.77,0.928c0.11-0.16,0.174-0.358,0.37-0.447
		C141.001,60.203,141.1,60.264,141.148,60.402z"/>
	<path fill-rule="evenodd" clip-rule="evenodd" fill="#BBE77B" d="M140.803,60.298c-0.105,0.119-0.21,0.238-0.315,0.356
		c-0.021-0.109-0.041-0.217-0.061-0.327c0.118-0.588-0.307-1.308,0.424-1.747c-0.012,0.223-0.023,0.445-0.035,0.667
		C141.111,59.603,141.089,59.952,140.803,60.298z"/>
	<path fill-rule="evenodd" clip-rule="evenodd" fill="#7FD9FA" d="M133.635,66.147c-0.143,0.536,0.179,1.351-0.67,1.224
		c-0.706-0.106-0.41-0.862-0.428-1.342c-0.02-0.504-0.042-1.261,0.679-1.152C133.946,64.987,133.375,65.792,133.635,66.147z"/>
	<path fill-rule="evenodd" clip-rule="evenodd" fill="#BFE769" d="M136.851,64.28c0.113,0,0.227,0,0.341,0
		c-0.046,0.855-0.593,1.138-1.337,1.077c-1.377-0.113-1.611,0.697-1.533,1.797l-0.179,0.017l-0.18-0.006
		c0.01-0.581,0.021-1.162,0.031-1.744c0.448-0.903,1.397-0.73,2.141-0.999C136.364,64.328,136.601,64.267,136.851,64.28z"/>
	<path fill-rule="evenodd" clip-rule="evenodd" fill="#88DCE4" d="M136.469,64.629c-0.681,0.716-1.806,0.041-2.475,0.792
		c-0.05-0.519,0.221-0.76,0.706-0.817c0.573-0.366,1.006-0.873,1.418-1.401c0.119-0.122,0.237-0.244,0.355-0.366
		C136.75,63.435,136.76,64.032,136.469,64.629z"/>
	<path fill-rule="evenodd" clip-rule="evenodd" fill="#6BD6FD" d="M136.118,63.203c0.075,1.022-0.377,1.51-1.418,1.401
		C134.792,63.752,135.284,63.304,136.118,63.203z"/>
	<path fill-rule="evenodd" clip-rule="evenodd" fill="#A4E2AE" d="M136.469,64.629c0.001-0.598,0.003-1.195,0.004-1.792
		c0.014-0.106,0.025-0.213,0.033-0.319c0.122-0.002,0.243-0.005,0.364-0.007c-0.006,0.59-0.013,1.18-0.02,1.77
		C136.724,64.396,136.596,64.513,136.469,64.629z"/>
	<path fill-rule="evenodd" clip-rule="evenodd" fill="#75D7FE" d="M138.272,77.239c0.126-0.005,0.253-0.01,0.379-0.015
		c0.16-0.104,0.31-0.086,0.452,0.036c0.118,0.255,0.119,0.492-0.101,0.697c-0.24,0.402-0.482,0.032-0.723,0.003
		c-0.12-0.12-0.241-0.239-0.36-0.359C138.037,77.481,138.155,77.359,138.272,77.239z"/>
	<path fill-rule="evenodd" clip-rule="evenodd" fill="#83DAF3" d="M139.002,77.958c-0.003-0.228-0.005-0.455-0.008-0.684
		c0.444-0.249,0.541,0.121,0.694,0.39c-0.016,0.105,0.002,0.205,0.056,0.297c0.11,0.721,0.221,1.44,0.332,2.16
		c0.032,0.832,0.063,1.664,0.096,2.497c-0.854-0.497-0.756-1.338-0.825-2.148C139.274,79.63,139.68,78.716,139.002,77.958z"/>
	<path fill-rule="evenodd" clip-rule="evenodd" fill="#D2EC35" d="M133.596,75.084c0.155,0.284,0.421,0.35,0.714,0.362
		c0.089,0.959-0.808,0.271-1.072,0.641c-0.102,0.007-0.201-0.008-0.297-0.044C133.066,75.659,132.373,74.717,133.596,75.084z"/>
	<path fill-rule="evenodd" clip-rule="evenodd" fill="#87DBFA" d="M135.042,76.886c0.837,0.003,1.675,0.005,2.512,0.008
		C136.715,77.435,135.878,77.445,135.042,76.886z"/>
	<path fill-rule="evenodd" clip-rule="evenodd" fill="#BDE76E" d="M139.688,77.664c-0.231-0.13-0.463-0.26-0.694-0.39
		c-0.111-0.04-0.225-0.057-0.343-0.049c-0.02-0.224-0.04-0.446-0.06-0.668C139.354,76.533,139.711,76.911,139.688,77.664z"/>
	<path fill-rule="evenodd" clip-rule="evenodd" fill="#CBEA4B" d="M133.239,76.087c0.357-0.214,0.714-0.428,1.072-0.642
		c1.43,0.32,3.088-0.74,4.33,0.718C136.84,76.138,135.039,76.112,133.239,76.087z"/>
	<path fill-rule="evenodd" clip-rule="evenodd" fill="#67D4FE" d="M142.951,60.678c-0.24-0.001-0.48-0.001-0.721-0.002
		c0.08-0.562,0.273-1.066,0.722-1.443c0.424,0.257,0.358,0.677,0.36,1.075C143.192,60.431,143.071,60.555,142.951,60.678z"/>
	<path fill-rule="evenodd" clip-rule="evenodd" fill="#85DBFD" d="M137.92,61.734c0.771-0.64,1.678-0.215,2.517-0.325
		C139.668,62.066,138.759,61.632,137.92,61.734z"/>
	<path fill-rule="evenodd" clip-rule="evenodd" fill="#E7F00A" d="M140.803,60.298c0.004-0.35,0.009-0.7,0.014-1.05
		c0.465-0.301,0.825-0.244,1.039,0.306c-0.312,0.219-0.244,0.755-0.707,0.848C141.033,60.367,140.918,60.333,140.803,60.298z"/>
</g>
</svg>
